<mxfile host="Electron" modified="2023-12-14T14:39:45.107Z" agent="Mozilla/5.0 (Windows NT 10.0; Win64; x64) AppleWebKit/537.36 (KHTML, like Gecko) draw.io/22.1.2 Chrome/114.0.5735.289 Electron/25.9.4 Safari/537.36" etag="RCBGBusoOySSxmkl3Ntb" version="22.1.2" type="device">
  <diagram id="C5RBs43oDa-KdzZeNtuy" name="Page-1">
    <mxGraphModel dx="3314" dy="3549" grid="1" gridSize="10" guides="1" tooltips="1" connect="1" arrows="1" fold="1" page="1" pageScale="1" pageWidth="827" pageHeight="1169" math="0" shadow="0">
      <root>
        <mxCell id="WIyWlLk6GJQsqaUBKTNV-0" />
        <mxCell id="WIyWlLk6GJQsqaUBKTNV-1" parent="WIyWlLk6GJQsqaUBKTNV-0" />
        <mxCell id="6pwyPwWgQ0DsB0Vv8i3Q-214" style="edgeStyle=orthogonalEdgeStyle;rounded=0;orthogonalLoop=1;jettySize=auto;html=1;" edge="1" parent="WIyWlLk6GJQsqaUBKTNV-1" source="zkfFHV4jXpPFQw0GAbJ--17" target="W4WwmLkZaQW5VXkHkMsK-13">
          <mxGeometry relative="1" as="geometry" />
        </mxCell>
        <mxCell id="zkfFHV4jXpPFQw0GAbJ--17" value="MenuBar" style="swimlane;fontStyle=0;align=center;verticalAlign=top;childLayout=stackLayout;horizontal=1;startSize=26;horizontalStack=0;resizeParent=1;resizeLast=0;collapsible=1;marginBottom=0;rounded=0;shadow=0;strokeWidth=1;" parent="WIyWlLk6GJQsqaUBKTNV-1" vertex="1">
          <mxGeometry x="1160" y="-130" width="180" height="120" as="geometry">
            <mxRectangle x="550" y="140" width="160" height="26" as="alternateBounds" />
          </mxGeometry>
        </mxCell>
        <mxCell id="zkfFHV4jXpPFQw0GAbJ--18" value="- size : int" style="text;align=left;verticalAlign=top;spacingLeft=4;spacingRight=4;overflow=hidden;rotatable=0;points=[[0,0.5],[1,0.5]];portConstraint=eastwest;" parent="zkfFHV4jXpPFQw0GAbJ--17" vertex="1">
          <mxGeometry y="26" width="180" height="26" as="geometry" />
        </mxCell>
        <mxCell id="6pwyPwWgQ0DsB0Vv8i3Q-10" value="- actionListener : ActionListener" style="text;align=left;verticalAlign=top;spacingLeft=4;spacingRight=4;overflow=hidden;rotatable=0;points=[[0,0.5],[1,0.5]];portConstraint=eastwest;" vertex="1" parent="zkfFHV4jXpPFQw0GAbJ--17">
          <mxGeometry y="52" width="180" height="26" as="geometry" />
        </mxCell>
        <mxCell id="zkfFHV4jXpPFQw0GAbJ--23" value="" style="line;html=1;strokeWidth=1;align=left;verticalAlign=middle;spacingTop=-1;spacingLeft=3;spacingRight=3;rotatable=0;labelPosition=right;points=[];portConstraint=eastwest;" parent="zkfFHV4jXpPFQw0GAbJ--17" vertex="1">
          <mxGeometry y="78" width="180" height="8" as="geometry" />
        </mxCell>
        <mxCell id="zkfFHV4jXpPFQw0GAbJ--24" value="+ getBoardSize() : int" style="text;align=left;verticalAlign=top;spacingLeft=4;spacingRight=4;overflow=hidden;rotatable=0;points=[[0,0.5],[1,0.5]];portConstraint=eastwest;" parent="zkfFHV4jXpPFQw0GAbJ--17" vertex="1">
          <mxGeometry y="86" width="180" height="26" as="geometry" />
        </mxCell>
        <mxCell id="W4WwmLkZaQW5VXkHkMsK-3" value="BaseWindow" style="swimlane;fontStyle=2;align=center;verticalAlign=top;childLayout=stackLayout;horizontal=1;startSize=26;horizontalStack=0;resizeParent=1;resizeLast=0;collapsible=1;marginBottom=0;rounded=0;shadow=0;strokeWidth=1;" parent="WIyWlLk6GJQsqaUBKTNV-1" vertex="1">
          <mxGeometry x="1233.5" y="-380" width="160" height="60" as="geometry">
            <mxRectangle x="220" y="120" width="160" height="26" as="alternateBounds" />
          </mxGeometry>
        </mxCell>
        <mxCell id="W4WwmLkZaQW5VXkHkMsK-6" value="" style="line;html=1;strokeWidth=1;align=left;verticalAlign=middle;spacingTop=-1;spacingLeft=3;spacingRight=3;rotatable=0;labelPosition=right;points=[];portConstraint=eastwest;" parent="W4WwmLkZaQW5VXkHkMsK-3" vertex="1">
          <mxGeometry y="26" width="160" height="8" as="geometry" />
        </mxCell>
        <mxCell id="W4WwmLkZaQW5VXkHkMsK-7" value="+ exit ()" style="text;align=left;verticalAlign=top;spacingLeft=4;spacingRight=4;overflow=hidden;rotatable=0;points=[[0,0.5],[1,0.5]];portConstraint=eastwest;" parent="W4WwmLkZaQW5VXkHkMsK-3" vertex="1">
          <mxGeometry y="34" width="160" height="26" as="geometry" />
        </mxCell>
        <mxCell id="W4WwmLkZaQW5VXkHkMsK-10" value="MainWindow" style="swimlane;fontStyle=0;align=center;verticalAlign=top;childLayout=stackLayout;horizontal=1;startSize=26;horizontalStack=0;resizeParent=1;resizeLast=0;collapsible=1;marginBottom=0;rounded=0;shadow=0;strokeWidth=1;" parent="WIyWlLk6GJQsqaUBKTNV-1" vertex="1">
          <mxGeometry x="1350" y="-270" width="365" height="164" as="geometry">
            <mxRectangle x="130" y="380" width="160" height="26" as="alternateBounds" />
          </mxGeometry>
        </mxCell>
        <mxCell id="6pwyPwWgQ0DsB0Vv8i3Q-9" value="- game : Game" style="text;align=left;verticalAlign=top;spacingLeft=4;spacingRight=4;overflow=hidden;rotatable=0;points=[[0,0.5],[1,0.5]];portConstraint=eastwest;" vertex="1" parent="W4WwmLkZaQW5VXkHkMsK-10">
          <mxGeometry y="26" width="365" height="26" as="geometry" />
        </mxCell>
        <mxCell id="W4WwmLkZaQW5VXkHkMsK-11" value="" style="line;html=1;strokeWidth=1;align=left;verticalAlign=middle;spacingTop=-1;spacingLeft=3;spacingRight=3;rotatable=0;labelPosition=right;points=[];portConstraint=eastwest;" parent="W4WwmLkZaQW5VXkHkMsK-10" vertex="1">
          <mxGeometry y="52" width="365" height="8" as="geometry" />
        </mxCell>
        <mxCell id="W4WwmLkZaQW5VXkHkMsK-18" value="- generateDifficultyButtons () : JPanel" style="text;align=left;verticalAlign=top;spacingLeft=4;spacingRight=4;overflow=hidden;rotatable=0;points=[[0,0.5],[1,0.5]];portConstraint=eastwest;" parent="W4WwmLkZaQW5VXkHkMsK-10" vertex="1">
          <mxGeometry y="60" width="365" height="26" as="geometry" />
        </mxCell>
        <mxCell id="6pwyPwWgQ0DsB0Vv8i3Q-5" value="- showLevelsOfDifficultyButtons (difficulty : String) : ActionListener" style="text;align=left;verticalAlign=top;spacingLeft=4;spacingRight=4;overflow=hidden;rotatable=0;points=[[0,0.5],[1,0.5]];portConstraint=eastwest;" vertex="1" parent="W4WwmLkZaQW5VXkHkMsK-10">
          <mxGeometry y="86" width="365" height="26" as="geometry" />
        </mxCell>
        <mxCell id="6pwyPwWgQ0DsB0Vv8i3Q-8" value="- runGameLevel (gameID : GameID) : ActionListener" style="text;align=left;verticalAlign=top;spacingLeft=4;spacingRight=4;overflow=hidden;rotatable=0;points=[[0,0.5],[1,0.5]];portConstraint=eastwest;" vertex="1" parent="W4WwmLkZaQW5VXkHkMsK-10">
          <mxGeometry y="112" width="365" height="26" as="geometry" />
        </mxCell>
        <mxCell id="6pwyPwWgQ0DsB0Vv8i3Q-6" value="- showAddInfo (hs : ArrayList&lt;HighScore&gt;) : ActionListener" style="text;align=left;verticalAlign=top;spacingLeft=4;spacingRight=4;overflow=hidden;rotatable=0;points=[[0,0.5],[1,0.5]];portConstraint=eastwest;" vertex="1" parent="W4WwmLkZaQW5VXkHkMsK-10">
          <mxGeometry y="138" width="365" height="26" as="geometry" />
        </mxCell>
        <mxCell id="W4WwmLkZaQW5VXkHkMsK-12" value="" style="endArrow=block;endSize=10;endFill=0;shadow=0;strokeWidth=1;rounded=0;edgeStyle=elbowEdgeStyle;elbow=vertical;" parent="WIyWlLk6GJQsqaUBKTNV-1" source="W4WwmLkZaQW5VXkHkMsK-10" target="W4WwmLkZaQW5VXkHkMsK-3" edge="1">
          <mxGeometry width="160" relative="1" as="geometry">
            <mxPoint x="1645" y="-427" as="sourcePoint" />
            <mxPoint x="1645" y="-427" as="targetPoint" />
          </mxGeometry>
        </mxCell>
        <mxCell id="W4WwmLkZaQW5VXkHkMsK-13" value="GameWindow" style="swimlane;fontStyle=0;align=center;verticalAlign=top;childLayout=stackLayout;horizontal=1;startSize=26;horizontalStack=0;resizeParent=1;resizeLast=0;collapsible=1;marginBottom=0;rounded=0;shadow=0;strokeWidth=1;" parent="WIyWlLk6GJQsqaUBKTNV-1" vertex="1">
          <mxGeometry x="690" y="-270" width="440" height="242" as="geometry">
            <mxRectangle x="340" y="380" width="170" height="26" as="alternateBounds" />
          </mxGeometry>
        </mxCell>
        <mxCell id="W4WwmLkZaQW5VXkHkMsK-14" value="- game : Game" style="text;align=left;verticalAlign=top;spacingLeft=4;spacingRight=4;overflow=hidden;rotatable=0;points=[[0,0.5],[1,0.5]];portConstraint=eastwest;" parent="W4WwmLkZaQW5VXkHkMsK-13" vertex="1">
          <mxGeometry y="26" width="440" height="26" as="geometry" />
        </mxCell>
        <mxCell id="W4WwmLkZaQW5VXkHkMsK-19" value="- board : Board" style="text;align=left;verticalAlign=top;spacingLeft=4;spacingRight=4;overflow=hidden;rotatable=0;points=[[0,0.5],[1,0.5]];portConstraint=eastwest;" parent="W4WwmLkZaQW5VXkHkMsK-13" vertex="1">
          <mxGeometry y="52" width="440" height="26" as="geometry" />
        </mxCell>
        <mxCell id="W4WwmLkZaQW5VXkHkMsK-20" value="- gameStatLabel : JLabel" style="text;align=left;verticalAlign=top;spacingLeft=4;spacingRight=4;overflow=hidden;rotatable=0;points=[[0,0.5],[1,0.5]];portConstraint=eastwest;" parent="W4WwmLkZaQW5VXkHkMsK-13" vertex="1">
          <mxGeometry y="78" width="440" height="26" as="geometry" />
        </mxCell>
        <mxCell id="W4WwmLkZaQW5VXkHkMsK-21" value="- gameLevelName :Â JLabel" style="text;align=left;verticalAlign=top;spacingLeft=4;spacingRight=4;overflow=hidden;rotatable=0;points=[[0,0.5],[1,0.5]];portConstraint=eastwest;" parent="W4WwmLkZaQW5VXkHkMsK-13" vertex="1">
          <mxGeometry y="104" width="440" height="26" as="geometry" />
        </mxCell>
        <mxCell id="W4WwmLkZaQW5VXkHkMsK-23" value="- gameEnd : boolean" style="text;align=left;verticalAlign=top;spacingLeft=4;spacingRight=4;overflow=hidden;rotatable=0;points=[[0,0.5],[1,0.5]];portConstraint=eastwest;" parent="W4WwmLkZaQW5VXkHkMsK-13" vertex="1">
          <mxGeometry y="130" width="440" height="26" as="geometry" />
        </mxCell>
        <mxCell id="W4WwmLkZaQW5VXkHkMsK-15" value="" style="line;html=1;strokeWidth=1;align=left;verticalAlign=middle;spacingTop=-1;spacingLeft=3;spacingRight=3;rotatable=0;labelPosition=right;points=[];portConstraint=eastwest;" parent="W4WwmLkZaQW5VXkHkMsK-13" vertex="1">
          <mxGeometry y="156" width="440" height="8" as="geometry" />
        </mxCell>
        <mxCell id="W4WwmLkZaQW5VXkHkMsK-16" value="- createGameLevelMenuItems (menu : JMenu)" style="text;align=left;verticalAlign=top;spacingLeft=4;spacingRight=4;overflow=hidden;rotatable=0;points=[[0,0.5],[1,0.5]];portConstraint=eastwest;" parent="W4WwmLkZaQW5VXkHkMsK-13" vertex="1">
          <mxGeometry y="164" width="440" height="26" as="geometry" />
        </mxCell>
        <mxCell id="W4WwmLkZaQW5VXkHkMsK-24" value="- createScaleMenuItems (menu : JMenu,Â from : double, to : double, by : double)" style="text;align=left;verticalAlign=top;spacingLeft=4;spacingRight=4;overflow=hidden;rotatable=0;points=[[0,0.5],[1,0.5]];portConstraint=eastwest;" parent="W4WwmLkZaQW5VXkHkMsK-13" vertex="1">
          <mxGeometry y="190" width="440" height="26" as="geometry" />
        </mxCell>
        <mxCell id="W4WwmLkZaQW5VXkHkMsK-26" value="- finishGame()" style="text;align=left;verticalAlign=top;spacingLeft=4;spacingRight=4;overflow=hidden;rotatable=0;points=[[0,0.5],[1,0.5]];portConstraint=eastwest;" parent="W4WwmLkZaQW5VXkHkMsK-13" vertex="1">
          <mxGeometry y="216" width="440" height="26" as="geometry" />
        </mxCell>
        <mxCell id="W4WwmLkZaQW5VXkHkMsK-17" value="" style="endArrow=block;endSize=10;endFill=0;shadow=0;strokeWidth=1;rounded=0;edgeStyle=elbowEdgeStyle;elbow=vertical;" parent="WIyWlLk6GJQsqaUBKTNV-1" source="W4WwmLkZaQW5VXkHkMsK-13" target="W4WwmLkZaQW5VXkHkMsK-3" edge="1">
          <mxGeometry width="160" relative="1" as="geometry">
            <mxPoint x="1655" y="-257" as="sourcePoint" />
            <mxPoint x="1755" y="-359" as="targetPoint" />
          </mxGeometry>
        </mxCell>
        <mxCell id="6pwyPwWgQ0DsB0Vv8i3Q-0" value="HighScoresWindow" style="swimlane;fontStyle=0;align=center;verticalAlign=top;childLayout=stackLayout;horizontal=1;startSize=26;horizontalStack=0;resizeParent=1;resizeLast=0;collapsible=1;marginBottom=0;rounded=0;shadow=0;strokeWidth=1;" vertex="1" parent="WIyWlLk6GJQsqaUBKTNV-1">
          <mxGeometry x="1150" y="-270" width="180" height="60" as="geometry">
            <mxRectangle x="130" y="380" width="160" height="26" as="alternateBounds" />
          </mxGeometry>
        </mxCell>
        <mxCell id="6pwyPwWgQ0DsB0Vv8i3Q-1" value="" style="line;html=1;strokeWidth=1;align=left;verticalAlign=middle;spacingTop=-1;spacingLeft=3;spacingRight=3;rotatable=0;labelPosition=right;points=[];portConstraint=eastwest;" vertex="1" parent="6pwyPwWgQ0DsB0Vv8i3Q-0">
          <mxGeometry y="26" width="180" height="8" as="geometry" />
        </mxCell>
        <mxCell id="6pwyPwWgQ0DsB0Vv8i3Q-2" value="- backAction () : ActionListener" style="text;align=left;verticalAlign=top;spacingLeft=4;spacingRight=4;overflow=hidden;rotatable=0;points=[[0,0.5],[1,0.5]];portConstraint=eastwest;" vertex="1" parent="6pwyPwWgQ0DsB0Vv8i3Q-0">
          <mxGeometry y="34" width="180" height="26" as="geometry" />
        </mxCell>
        <mxCell id="6pwyPwWgQ0DsB0Vv8i3Q-4" value="" style="endArrow=block;endSize=10;endFill=0;shadow=0;strokeWidth=1;rounded=0;edgeStyle=elbowEdgeStyle;elbow=vertical;exitX=0.5;exitY=0;exitDx=0;exitDy=0;" edge="1" parent="WIyWlLk6GJQsqaUBKTNV-1" source="6pwyPwWgQ0DsB0Vv8i3Q-0" target="W4WwmLkZaQW5VXkHkMsK-3">
          <mxGeometry width="160" relative="1" as="geometry">
            <mxPoint x="1370" y="-270" as="sourcePoint" />
            <mxPoint x="1510" y="-380" as="targetPoint" />
          </mxGeometry>
        </mxCell>
        <mxCell id="6pwyPwWgQ0DsB0Vv8i3Q-24" value="Sprites" style="swimlane;fontStyle=0;align=center;verticalAlign=top;childLayout=stackLayout;horizontal=1;startSize=26;horizontalStack=0;resizeParent=1;resizeLast=0;collapsible=1;marginBottom=0;rounded=0;shadow=0;strokeWidth=1;" vertex="1" parent="WIyWlLk6GJQsqaUBKTNV-1">
          <mxGeometry x="740" y="240" width="320" height="372" as="geometry">
            <mxRectangle x="340" y="380" width="170" height="26" as="alternateBounds" />
          </mxGeometry>
        </mxCell>
        <mxCell id="6pwyPwWgQ0DsB0Vv8i3Q-25" value="- x : int" style="text;align=left;verticalAlign=top;spacingLeft=4;spacingRight=4;overflow=hidden;rotatable=0;points=[[0,0.5],[1,0.5]];portConstraint=eastwest;" vertex="1" parent="6pwyPwWgQ0DsB0Vv8i3Q-24">
          <mxGeometry y="26" width="320" height="26" as="geometry" />
        </mxCell>
        <mxCell id="6pwyPwWgQ0DsB0Vv8i3Q-28" value="- y : int" style="text;align=left;verticalAlign=top;spacingLeft=4;spacingRight=4;overflow=hidden;rotatable=0;points=[[0,0.5],[1,0.5]];portConstraint=eastwest;" vertex="1" parent="6pwyPwWgQ0DsB0Vv8i3Q-24">
          <mxGeometry y="52" width="320" height="26" as="geometry" />
        </mxCell>
        <mxCell id="6pwyPwWgQ0DsB0Vv8i3Q-29" value="- tile_size : int" style="text;align=left;verticalAlign=top;spacingLeft=4;spacingRight=4;overflow=hidden;rotatable=0;points=[[0,0.5],[1,0.5]];portConstraint=eastwest;" vertex="1" parent="6pwyPwWgQ0DsB0Vv8i3Q-24">
          <mxGeometry y="78" width="320" height="26" as="geometry" />
        </mxCell>
        <mxCell id="6pwyPwWgQ0DsB0Vv8i3Q-26" value="" style="line;html=1;strokeWidth=1;align=left;verticalAlign=middle;spacingTop=-1;spacingLeft=3;spacingRight=3;rotatable=0;labelPosition=right;points=[];portConstraint=eastwest;" vertex="1" parent="6pwyPwWgQ0DsB0Vv8i3Q-24">
          <mxGeometry y="104" width="320" height="8" as="geometry" />
        </mxCell>
        <mxCell id="6pwyPwWgQ0DsB0Vv8i3Q-27" value="+ drawCell(g2 : Graphics2D, li : LevelItem, luminosity : int)" style="text;align=left;verticalAlign=top;spacingLeft=4;spacingRight=4;overflow=hidden;rotatable=0;points=[[0,0.5],[1,0.5]];portConstraint=eastwest;" vertex="1" parent="6pwyPwWgQ0DsB0Vv8i3Q-24">
          <mxGeometry y="112" width="320" height="26" as="geometry" />
        </mxCell>
        <mxCell id="6pwyPwWgQ0DsB0Vv8i3Q-41" value="+ drawDragon(g2 : Graphics2D,luminosity : int)" style="text;align=left;verticalAlign=top;spacingLeft=4;spacingRight=4;overflow=hidden;rotatable=0;points=[[0,0.5],[1,0.5]];portConstraint=eastwest;" vertex="1" parent="6pwyPwWgQ0DsB0Vv8i3Q-24">
          <mxGeometry y="138" width="320" height="26" as="geometry" />
        </mxCell>
        <mxCell id="6pwyPwWgQ0DsB0Vv8i3Q-37" value="+ drawPlayer(g2 : Graphics2D)" style="text;align=left;verticalAlign=top;spacingLeft=4;spacingRight=4;overflow=hidden;rotatable=0;points=[[0,0.5],[1,0.5]];portConstraint=eastwest;" vertex="1" parent="6pwyPwWgQ0DsB0Vv8i3Q-24">
          <mxGeometry y="164" width="320" height="26" as="geometry" />
        </mxCell>
        <mxCell id="6pwyPwWgQ0DsB0Vv8i3Q-30" value="- drawItem(g2 : Graphics2D, li : LevelItem)" style="text;align=left;verticalAlign=top;spacingLeft=4;spacingRight=4;overflow=hidden;rotatable=0;points=[[0,0.5],[1,0.5]];portConstraint=eastwest;" vertex="1" parent="6pwyPwWgQ0DsB0Vv8i3Q-24">
          <mxGeometry y="190" width="320" height="26" as="geometry" />
        </mxCell>
        <mxCell id="6pwyPwWgQ0DsB0Vv8i3Q-32" value="- drawDestination(g2 : Graphics2D)" style="text;align=left;verticalAlign=top;spacingLeft=4;spacingRight=4;overflow=hidden;rotatable=0;points=[[0,0.5],[1,0.5]];portConstraint=eastwest;" vertex="1" parent="6pwyPwWgQ0DsB0Vv8i3Q-24">
          <mxGeometry y="216" width="320" height="26" as="geometry" />
        </mxCell>
        <mxCell id="6pwyPwWgQ0DsB0Vv8i3Q-33" value="- drawWall(g2 : Graphics2D)" style="text;align=left;verticalAlign=top;spacingLeft=4;spacingRight=4;overflow=hidden;rotatable=0;points=[[0,0.5],[1,0.5]];portConstraint=eastwest;" vertex="1" parent="6pwyPwWgQ0DsB0Vv8i3Q-24">
          <mxGeometry y="242" width="320" height="26" as="geometry" />
        </mxCell>
        <mxCell id="6pwyPwWgQ0DsB0Vv8i3Q-34" value="- drawEmpty(g2 : Graphics2D)" style="text;align=left;verticalAlign=top;spacingLeft=4;spacingRight=4;overflow=hidden;rotatable=0;points=[[0,0.5],[1,0.5]];portConstraint=eastwest;" vertex="1" parent="6pwyPwWgQ0DsB0Vv8i3Q-24">
          <mxGeometry y="268" width="320" height="26" as="geometry" />
        </mxCell>
        <mxCell id="6pwyPwWgQ0DsB0Vv8i3Q-36" value="- drawEmpty(g2 : Graphics2D,luminosity : int)" style="text;align=left;verticalAlign=top;spacingLeft=4;spacingRight=4;overflow=hidden;rotatable=0;points=[[0,0.5],[1,0.5]];portConstraint=eastwest;" vertex="1" parent="6pwyPwWgQ0DsB0Vv8i3Q-24">
          <mxGeometry y="294" width="320" height="26" as="geometry" />
        </mxCell>
        <mxCell id="6pwyPwWgQ0DsB0Vv8i3Q-38" value="+ getBasedOn32(n : int) : int" style="text;align=left;verticalAlign=top;spacingLeft=4;spacingRight=4;overflow=hidden;rotatable=0;points=[[0,0.5],[1,0.5]];portConstraint=eastwest;" vertex="1" parent="6pwyPwWgQ0DsB0Vv8i3Q-24">
          <mxGeometry y="320" width="320" height="26" as="geometry" />
        </mxCell>
        <mxCell id="6pwyPwWgQ0DsB0Vv8i3Q-40" value="+ get255to100(n : int) : float" style="text;align=left;verticalAlign=top;spacingLeft=4;spacingRight=4;overflow=hidden;rotatable=0;points=[[0,0.5],[1,0.5]];portConstraint=eastwest;" vertex="1" parent="6pwyPwWgQ0DsB0Vv8i3Q-24">
          <mxGeometry y="346" width="320" height="26" as="geometry" />
        </mxCell>
        <mxCell id="6pwyPwWgQ0DsB0Vv8i3Q-42" value="ResourceLoader" style="swimlane;fontStyle=0;align=center;verticalAlign=top;childLayout=stackLayout;horizontal=1;startSize=26;horizontalStack=0;resizeParent=1;resizeLast=0;collapsible=1;marginBottom=0;rounded=0;shadow=0;strokeWidth=1;" vertex="1" parent="WIyWlLk6GJQsqaUBKTNV-1">
          <mxGeometry x="1160" y="20" width="270" height="86" as="geometry">
            <mxRectangle x="340" y="380" width="170" height="26" as="alternateBounds" />
          </mxGeometry>
        </mxCell>
        <mxCell id="6pwyPwWgQ0DsB0Vv8i3Q-44" value="" style="line;html=1;strokeWidth=1;align=left;verticalAlign=middle;spacingTop=-1;spacingLeft=3;spacingRight=3;rotatable=0;labelPosition=right;points=[];portConstraint=eastwest;" vertex="1" parent="6pwyPwWgQ0DsB0Vv8i3Q-42">
          <mxGeometry y="26" width="270" height="8" as="geometry" />
        </mxCell>
        <mxCell id="6pwyPwWgQ0DsB0Vv8i3Q-45" value="+ loadResource(resName : String) :Â InputStream" style="text;align=left;verticalAlign=top;spacingLeft=4;spacingRight=4;overflow=hidden;rotatable=0;points=[[0,0.5],[1,0.5]];portConstraint=eastwest;" vertex="1" parent="6pwyPwWgQ0DsB0Vv8i3Q-42">
          <mxGeometry y="34" width="270" height="26" as="geometry" />
        </mxCell>
        <mxCell id="6pwyPwWgQ0DsB0Vv8i3Q-46" value="+ loadImage(resName : String) :Â Image" style="text;align=left;verticalAlign=top;spacingLeft=4;spacingRight=4;overflow=hidden;rotatable=0;points=[[0,0.5],[1,0.5]];portConstraint=eastwest;" vertex="1" parent="6pwyPwWgQ0DsB0Vv8i3Q-42">
          <mxGeometry y="60" width="270" height="26" as="geometry" />
        </mxCell>
        <mxCell id="6pwyPwWgQ0DsB0Vv8i3Q-104" style="edgeStyle=orthogonalEdgeStyle;rounded=0;orthogonalLoop=1;jettySize=auto;html=1;" edge="1" parent="WIyWlLk6GJQsqaUBKTNV-1" source="6pwyPwWgQ0DsB0Vv8i3Q-49" target="6pwyPwWgQ0DsB0Vv8i3Q-61">
          <mxGeometry relative="1" as="geometry" />
        </mxCell>
        <mxCell id="6pwyPwWgQ0DsB0Vv8i3Q-49" value="&lt;enum&gt;&#xa;Direction" style="swimlane;fontStyle=0;align=center;verticalAlign=top;childLayout=stackLayout;horizontal=1;startSize=40;horizontalStack=0;resizeParent=1;resizeLast=0;collapsible=1;marginBottom=0;rounded=0;shadow=0;strokeWidth=1;fontSize=12;" vertex="1" parent="WIyWlLk6GJQsqaUBKTNV-1">
          <mxGeometry x="827" y="640" width="200" height="256" as="geometry">
            <mxRectangle x="820" y="760" width="170" height="26" as="alternateBounds" />
          </mxGeometry>
        </mxCell>
        <mxCell id="6pwyPwWgQ0DsB0Vv8i3Q-50" value="DOWN" style="text;align=left;verticalAlign=top;spacingLeft=4;spacingRight=4;overflow=hidden;rotatable=0;points=[[0,0.5],[1,0.5]];portConstraint=eastwest;" vertex="1" parent="6pwyPwWgQ0DsB0Vv8i3Q-49">
          <mxGeometry y="40" width="200" height="26" as="geometry" />
        </mxCell>
        <mxCell id="6pwyPwWgQ0DsB0Vv8i3Q-53" value="LEFT" style="text;align=left;verticalAlign=top;spacingLeft=4;spacingRight=4;overflow=hidden;rotatable=0;points=[[0,0.5],[1,0.5]];portConstraint=eastwest;" vertex="1" parent="6pwyPwWgQ0DsB0Vv8i3Q-49">
          <mxGeometry y="66" width="200" height="26" as="geometry" />
        </mxCell>
        <mxCell id="6pwyPwWgQ0DsB0Vv8i3Q-54" value="UP" style="text;align=left;verticalAlign=top;spacingLeft=4;spacingRight=4;overflow=hidden;rotatable=0;points=[[0,0.5],[1,0.5]];portConstraint=eastwest;" vertex="1" parent="6pwyPwWgQ0DsB0Vv8i3Q-49">
          <mxGeometry y="92" width="200" height="26" as="geometry" />
        </mxCell>
        <mxCell id="6pwyPwWgQ0DsB0Vv8i3Q-55" value="RIGHT" style="text;align=left;verticalAlign=top;spacingLeft=4;spacingRight=4;overflow=hidden;rotatable=0;points=[[0,0.5],[1,0.5]];portConstraint=eastwest;" vertex="1" parent="6pwyPwWgQ0DsB0Vv8i3Q-49">
          <mxGeometry y="118" width="200" height="26" as="geometry" />
        </mxCell>
        <mxCell id="6pwyPwWgQ0DsB0Vv8i3Q-57" value="+ x : int" style="text;align=left;verticalAlign=top;spacingLeft=4;spacingRight=4;overflow=hidden;rotatable=0;points=[[0,0.5],[1,0.5]];portConstraint=eastwest;" vertex="1" parent="6pwyPwWgQ0DsB0Vv8i3Q-49">
          <mxGeometry y="144" width="200" height="26" as="geometry" />
        </mxCell>
        <mxCell id="6pwyPwWgQ0DsB0Vv8i3Q-58" value="+ y : int" style="text;align=left;verticalAlign=top;spacingLeft=4;spacingRight=4;overflow=hidden;rotatable=0;points=[[0,0.5],[1,0.5]];portConstraint=eastwest;" vertex="1" parent="6pwyPwWgQ0DsB0Vv8i3Q-49">
          <mxGeometry y="170" width="200" height="26" as="geometry" />
        </mxCell>
        <mxCell id="6pwyPwWgQ0DsB0Vv8i3Q-51" value="" style="line;html=1;strokeWidth=1;align=left;verticalAlign=middle;spacingTop=-1;spacingLeft=3;spacingRight=3;rotatable=0;labelPosition=right;points=[];portConstraint=eastwest;" vertex="1" parent="6pwyPwWgQ0DsB0Vv8i3Q-49">
          <mxGeometry y="196" width="200" height="8" as="geometry" />
        </mxCell>
        <mxCell id="6pwyPwWgQ0DsB0Vv8i3Q-52" value="+ rotateCW(d : Direction) :Â Direction" style="text;align=left;verticalAlign=top;spacingLeft=4;spacingRight=4;overflow=hidden;rotatable=0;points=[[0,0.5],[1,0.5]];portConstraint=eastwest;fontStyle=4" vertex="1" parent="6pwyPwWgQ0DsB0Vv8i3Q-49">
          <mxGeometry y="204" width="200" height="26" as="geometry" />
        </mxCell>
        <mxCell id="6pwyPwWgQ0DsB0Vv8i3Q-60" value="+ getAllDirections() :Â Direction[]" style="text;align=left;verticalAlign=top;spacingLeft=4;spacingRight=4;overflow=hidden;rotatable=0;points=[[0,0.5],[1,0.5]];portConstraint=eastwest;fontStyle=4" vertex="1" parent="6pwyPwWgQ0DsB0Vv8i3Q-49">
          <mxGeometry y="230" width="200" height="26" as="geometry" />
        </mxCell>
        <mxCell id="6pwyPwWgQ0DsB0Vv8i3Q-61" value="Game" style="swimlane;fontStyle=0;align=center;verticalAlign=top;childLayout=stackLayout;horizontal=1;startSize=26;horizontalStack=0;resizeParent=1;resizeLast=0;collapsible=1;marginBottom=0;rounded=0;shadow=0;strokeWidth=1;" vertex="1" parent="WIyWlLk6GJQsqaUBKTNV-1">
          <mxGeometry x="1080" y="130" width="370" height="1050" as="geometry">
            <mxRectangle x="340" y="380" width="170" height="26" as="alternateBounds" />
          </mxGeometry>
        </mxCell>
        <mxCell id="6pwyPwWgQ0DsB0Vv8i3Q-62" value="- gameLevels : HashMap&lt;String, HashMap&lt;Integer, GameLevel&gt;&gt;" style="text;align=left;verticalAlign=top;spacingLeft=4;spacingRight=4;overflow=hidden;rotatable=0;points=[[0,0.5],[1,0.5]];portConstraint=eastwest;" vertex="1" parent="6pwyPwWgQ0DsB0Vv8i3Q-61">
          <mxGeometry y="26" width="370" height="26" as="geometry" />
        </mxCell>
        <mxCell id="6pwyPwWgQ0DsB0Vv8i3Q-66" value="-Â gameLevel : GameLevel" style="text;align=left;verticalAlign=top;spacingLeft=4;spacingRight=4;overflow=hidden;rotatable=0;points=[[0,0.5],[1,0.5]];portConstraint=eastwest;" vertex="1" parent="6pwyPwWgQ0DsB0Vv8i3Q-61">
          <mxGeometry y="52" width="370" height="26" as="geometry" />
        </mxCell>
        <mxCell id="6pwyPwWgQ0DsB0Vv8i3Q-68" value="- interval: int" style="text;align=left;verticalAlign=top;spacingLeft=4;spacingRight=4;overflow=hidden;rotatable=0;points=[[0,0.5],[1,0.5]];portConstraint=eastwest;" vertex="1" parent="6pwyPwWgQ0DsB0Vv8i3Q-61">
          <mxGeometry y="78" width="370" height="26" as="geometry" />
        </mxCell>
        <mxCell id="6pwyPwWgQ0DsB0Vv8i3Q-67" value="- timerStopped : boolean" style="text;align=left;verticalAlign=top;spacingLeft=4;spacingRight=4;overflow=hidden;rotatable=0;points=[[0,0.5],[1,0.5]];portConstraint=eastwest;" vertex="1" parent="6pwyPwWgQ0DsB0Vv8i3Q-61">
          <mxGeometry y="104" width="370" height="26" as="geometry" />
        </mxCell>
        <mxCell id="6pwyPwWgQ0DsB0Vv8i3Q-70" value="- database : Database" style="text;align=left;verticalAlign=top;spacingLeft=4;spacingRight=4;overflow=hidden;rotatable=0;points=[[0,0.5],[1,0.5]];portConstraint=eastwest;" vertex="1" parent="6pwyPwWgQ0DsB0Vv8i3Q-61">
          <mxGeometry y="130" width="370" height="26" as="geometry" />
        </mxCell>
        <mxCell id="6pwyPwWgQ0DsB0Vv8i3Q-71" value="-Â levelsPassed : int" style="text;align=left;verticalAlign=top;spacingLeft=4;spacingRight=4;overflow=hidden;rotatable=0;points=[[0,0.5],[1,0.5]];portConstraint=eastwest;" vertex="1" parent="6pwyPwWgQ0DsB0Vv8i3Q-61">
          <mxGeometry y="156" width="370" height="26" as="geometry" />
        </mxCell>
        <mxCell id="6pwyPwWgQ0DsB0Vv8i3Q-69" value="-Â totalTime : int" style="text;align=left;verticalAlign=top;spacingLeft=4;spacingRight=4;overflow=hidden;rotatable=0;points=[[0,0.5],[1,0.5]];portConstraint=eastwest;" vertex="1" parent="6pwyPwWgQ0DsB0Vv8i3Q-61">
          <mxGeometry y="182" width="370" height="26" as="geometry" />
        </mxCell>
        <mxCell id="6pwyPwWgQ0DsB0Vv8i3Q-63" value="" style="line;html=1;strokeWidth=1;align=left;verticalAlign=middle;spacingTop=-1;spacingLeft=3;spacingRight=3;rotatable=0;labelPosition=right;points=[];portConstraint=eastwest;" vertex="1" parent="6pwyPwWgQ0DsB0Vv8i3Q-61">
          <mxGeometry y="208" width="370" height="8" as="geometry" />
        </mxCell>
        <mxCell id="6pwyPwWgQ0DsB0Vv8i3Q-72" value="+ getHighScores() :Â ArrayList&lt;HighScore&gt;Â " style="text;align=left;verticalAlign=top;spacingLeft=4;spacingRight=4;overflow=hidden;rotatable=0;points=[[0,0.5],[1,0.5]];portConstraint=eastwest;" vertex="1" parent="6pwyPwWgQ0DsB0Vv8i3Q-61">
          <mxGeometry y="216" width="370" height="26" as="geometry" />
        </mxCell>
        <mxCell id="6pwyPwWgQ0DsB0Vv8i3Q-64" value="+ modSeconds() : int" style="text;align=left;verticalAlign=top;spacingLeft=4;spacingRight=4;overflow=hidden;rotatable=0;points=[[0,0.5],[1,0.5]];portConstraint=eastwest;" vertex="1" parent="6pwyPwWgQ0DsB0Vv8i3Q-61">
          <mxGeometry y="242" width="370" height="26" as="geometry" />
        </mxCell>
        <mxCell id="6pwyPwWgQ0DsB0Vv8i3Q-74" value="+ getSeconds () : int" style="text;align=left;verticalAlign=top;spacingLeft=4;spacingRight=4;overflow=hidden;rotatable=0;points=[[0,0.5],[1,0.5]];portConstraint=eastwest;" vertex="1" parent="6pwyPwWgQ0DsB0Vv8i3Q-61">
          <mxGeometry y="268" width="370" height="26" as="geometry" />
        </mxCell>
        <mxCell id="6pwyPwWgQ0DsB0Vv8i3Q-75" value="+ nullifySeconds()" style="text;align=left;verticalAlign=top;spacingLeft=4;spacingRight=4;overflow=hidden;rotatable=0;points=[[0,0.5],[1,0.5]];portConstraint=eastwest;" vertex="1" parent="6pwyPwWgQ0DsB0Vv8i3Q-61">
          <mxGeometry y="294" width="370" height="26" as="geometry" />
        </mxCell>
        <mxCell id="6pwyPwWgQ0DsB0Vv8i3Q-76" value="+ hasTimerStopped() : boolean" style="text;align=left;verticalAlign=top;spacingLeft=4;spacingRight=4;overflow=hidden;rotatable=0;points=[[0,0.5],[1,0.5]];portConstraint=eastwest;" vertex="1" parent="6pwyPwWgQ0DsB0Vv8i3Q-61">
          <mxGeometry y="320" width="370" height="26" as="geometry" />
        </mxCell>
        <mxCell id="6pwyPwWgQ0DsB0Vv8i3Q-77" value="+ stopTimer()" style="text;align=left;verticalAlign=top;spacingLeft=4;spacingRight=4;overflow=hidden;rotatable=0;points=[[0,0.5],[1,0.5]];portConstraint=eastwest;" vertex="1" parent="6pwyPwWgQ0DsB0Vv8i3Q-61">
          <mxGeometry y="346" width="370" height="26" as="geometry" />
        </mxCell>
        <mxCell id="6pwyPwWgQ0DsB0Vv8i3Q-73" value="+ loadGame(gameID : GameID)Â " style="text;align=left;verticalAlign=top;spacingLeft=4;spacingRight=4;overflow=hidden;rotatable=0;points=[[0,0.5],[1,0.5]];portConstraint=eastwest;" vertex="1" parent="6pwyPwWgQ0DsB0Vv8i3Q-61">
          <mxGeometry y="372" width="370" height="26" as="geometry" />
        </mxCell>
        <mxCell id="6pwyPwWgQ0DsB0Vv8i3Q-83" value="+ loadGame() :Â GameID" style="text;align=left;verticalAlign=top;spacingLeft=4;spacingRight=4;overflow=hidden;rotatable=0;points=[[0,0.5],[1,0.5]];portConstraint=eastwest;" vertex="1" parent="6pwyPwWgQ0DsB0Vv8i3Q-61">
          <mxGeometry y="398" width="370" height="26" as="geometry" />
        </mxCell>
        <mxCell id="6pwyPwWgQ0DsB0Vv8i3Q-79" value="+ getNextId(currID : GameID) :Â GameID" style="text;align=left;verticalAlign=top;spacingLeft=4;spacingRight=4;overflow=hidden;rotatable=0;points=[[0,0.5],[1,0.5]];portConstraint=eastwest;" vertex="1" parent="6pwyPwWgQ0DsB0Vv8i3Q-61">
          <mxGeometry y="424" width="370" height="26" as="geometry" />
        </mxCell>
        <mxCell id="6pwyPwWgQ0DsB0Vv8i3Q-78" value="+ printGameLevel()" style="text;align=left;verticalAlign=top;spacingLeft=4;spacingRight=4;overflow=hidden;rotatable=0;points=[[0,0.5],[1,0.5]];portConstraint=eastwest;" vertex="1" parent="6pwyPwWgQ0DsB0Vv8i3Q-61">
          <mxGeometry y="450" width="370" height="26" as="geometry" />
        </mxCell>
        <mxCell id="6pwyPwWgQ0DsB0Vv8i3Q-81" value="+ step(d : Direction) : boolean" style="text;align=left;verticalAlign=top;spacingLeft=4;spacingRight=4;overflow=hidden;rotatable=0;points=[[0,0.5],[1,0.5]];portConstraint=eastwest;" vertex="1" parent="6pwyPwWgQ0DsB0Vv8i3Q-61">
          <mxGeometry y="476" width="370" height="26" as="geometry" />
        </mxCell>
        <mxCell id="6pwyPwWgQ0DsB0Vv8i3Q-82" value="+ moveDragon() :Â boolean" style="text;align=left;verticalAlign=top;spacingLeft=4;spacingRight=4;overflow=hidden;rotatable=0;points=[[0,0.5],[1,0.5]];portConstraint=eastwest;" vertex="1" parent="6pwyPwWgQ0DsB0Vv8i3Q-61">
          <mxGeometry y="502" width="370" height="26" as="geometry" />
        </mxCell>
        <mxCell id="6pwyPwWgQ0DsB0Vv8i3Q-80" value="+ arePalyerDragonAdjacent() : boolean" style="text;align=left;verticalAlign=top;spacingLeft=4;spacingRight=4;overflow=hidden;rotatable=0;points=[[0,0.5],[1,0.5]];portConstraint=eastwest;" vertex="1" parent="6pwyPwWgQ0DsB0Vv8i3Q-61">
          <mxGeometry y="528" width="370" height="26" as="geometry" />
        </mxCell>
        <mxCell id="6pwyPwWgQ0DsB0Vv8i3Q-84" value="+ gameEnd(playerWin : boolean, name : String) : boolean" style="text;align=left;verticalAlign=top;spacingLeft=4;spacingRight=4;overflow=hidden;rotatable=0;points=[[0,0.5],[1,0.5]];portConstraint=eastwest;" vertex="1" parent="6pwyPwWgQ0DsB0Vv8i3Q-61">
          <mxGeometry y="554" width="370" height="26" as="geometry" />
        </mxCell>
        <mxCell id="6pwyPwWgQ0DsB0Vv8i3Q-86" value="+ getDifficulties() : Collection&lt;String&gt;Â " style="text;align=left;verticalAlign=top;spacingLeft=4;spacingRight=4;overflow=hidden;rotatable=0;points=[[0,0.5],[1,0.5]];portConstraint=eastwest;" vertex="1" parent="6pwyPwWgQ0DsB0Vv8i3Q-61">
          <mxGeometry y="580" width="370" height="26" as="geometry" />
        </mxCell>
        <mxCell id="6pwyPwWgQ0DsB0Vv8i3Q-87" value="+ getLevelsOfDifficulty(difficulty : String) : Collection&lt;Integer&gt;Â " style="text;align=left;verticalAlign=top;spacingLeft=4;spacingRight=4;overflow=hidden;rotatable=0;points=[[0,0.5],[1,0.5]];portConstraint=eastwest;" vertex="1" parent="6pwyPwWgQ0DsB0Vv8i3Q-61">
          <mxGeometry y="606" width="370" height="26" as="geometry" />
        </mxCell>
        <mxCell id="6pwyPwWgQ0DsB0Vv8i3Q-85" value="+ isLevelLoaded() : boolean" style="text;align=left;verticalAlign=top;spacingLeft=4;spacingRight=4;overflow=hidden;rotatable=0;points=[[0,0.5],[1,0.5]];portConstraint=eastwest;" vertex="1" parent="6pwyPwWgQ0DsB0Vv8i3Q-61">
          <mxGeometry y="632" width="370" height="26" as="geometry" />
        </mxCell>
        <mxCell id="6pwyPwWgQ0DsB0Vv8i3Q-88" value="+ getLevelRows() : int" style="text;align=left;verticalAlign=top;spacingLeft=4;spacingRight=4;overflow=hidden;rotatable=0;points=[[0,0.5],[1,0.5]];portConstraint=eastwest;" vertex="1" parent="6pwyPwWgQ0DsB0Vv8i3Q-61">
          <mxGeometry y="658" width="370" height="26" as="geometry" />
        </mxCell>
        <mxCell id="6pwyPwWgQ0DsB0Vv8i3Q-90" value="+ getLevelCols() : int" style="text;align=left;verticalAlign=top;spacingLeft=4;spacingRight=4;overflow=hidden;rotatable=0;points=[[0,0.5],[1,0.5]];portConstraint=eastwest;" vertex="1" parent="6pwyPwWgQ0DsB0Vv8i3Q-61">
          <mxGeometry y="684" width="370" height="26" as="geometry" />
        </mxCell>
        <mxCell id="6pwyPwWgQ0DsB0Vv8i3Q-91" value="+ getItem(row : int, col : int) : LevelItem" style="text;align=left;verticalAlign=top;spacingLeft=4;spacingRight=4;overflow=hidden;rotatable=0;points=[[0,0.5],[1,0.5]];portConstraint=eastwest;" vertex="1" parent="6pwyPwWgQ0DsB0Vv8i3Q-61">
          <mxGeometry y="710" width="370" height="26" as="geometry" />
        </mxCell>
        <mxCell id="6pwyPwWgQ0DsB0Vv8i3Q-89" value="+ getGameID() : GameID" style="text;align=left;verticalAlign=top;spacingLeft=4;spacingRight=4;overflow=hidden;rotatable=0;points=[[0,0.5],[1,0.5]];portConstraint=eastwest;" vertex="1" parent="6pwyPwWgQ0DsB0Vv8i3Q-61">
          <mxGeometry y="736" width="370" height="26" as="geometry" />
        </mxCell>
        <mxCell id="6pwyPwWgQ0DsB0Vv8i3Q-92" value="+ hasGameEnded() : boolean" style="text;align=left;verticalAlign=top;spacingLeft=4;spacingRight=4;overflow=hidden;rotatable=0;points=[[0,0.5],[1,0.5]];portConstraint=eastwest;" vertex="1" parent="6pwyPwWgQ0DsB0Vv8i3Q-61">
          <mxGeometry y="762" width="370" height="26" as="geometry" />
        </mxCell>
        <mxCell id="6pwyPwWgQ0DsB0Vv8i3Q-93" value="+ endCondition() : boolean" style="text;align=left;verticalAlign=top;spacingLeft=4;spacingRight=4;overflow=hidden;rotatable=0;points=[[0,0.5],[1,0.5]];portConstraint=eastwest;" vertex="1" parent="6pwyPwWgQ0DsB0Vv8i3Q-61">
          <mxGeometry y="788" width="370" height="26" as="geometry" />
        </mxCell>
        <mxCell id="6pwyPwWgQ0DsB0Vv8i3Q-95" value="+ getPlayerPos() : Position" style="text;align=left;verticalAlign=top;spacingLeft=4;spacingRight=4;overflow=hidden;rotatable=0;points=[[0,0.5],[1,0.5]];portConstraint=eastwest;" vertex="1" parent="6pwyPwWgQ0DsB0Vv8i3Q-61">
          <mxGeometry y="814" width="370" height="26" as="geometry" />
        </mxCell>
        <mxCell id="6pwyPwWgQ0DsB0Vv8i3Q-97" value="+ getDragonPos() : Position" style="text;align=left;verticalAlign=top;spacingLeft=4;spacingRight=4;overflow=hidden;rotatable=0;points=[[0,0.5],[1,0.5]];portConstraint=eastwest;" vertex="1" parent="6pwyPwWgQ0DsB0Vv8i3Q-61">
          <mxGeometry y="840" width="370" height="26" as="geometry" />
        </mxCell>
        <mxCell id="6pwyPwWgQ0DsB0Vv8i3Q-94" value="+ readLevels()" style="text;align=left;verticalAlign=top;spacingLeft=4;spacingRight=4;overflow=hidden;rotatable=0;points=[[0,0.5],[1,0.5]];portConstraint=eastwest;" vertex="1" parent="6pwyPwWgQ0DsB0Vv8i3Q-61">
          <mxGeometry y="866" width="370" height="26" as="geometry" />
        </mxCell>
        <mxCell id="6pwyPwWgQ0DsB0Vv8i3Q-96" value="+ addNewGameLevel(gameLevel : GameLevel)" style="text;align=left;verticalAlign=top;spacingLeft=4;spacingRight=4;overflow=hidden;rotatable=0;points=[[0,0.5],[1,0.5]];portConstraint=eastwest;" vertex="1" parent="6pwyPwWgQ0DsB0Vv8i3Q-61">
          <mxGeometry y="892" width="370" height="26" as="geometry" />
        </mxCell>
        <mxCell id="6pwyPwWgQ0DsB0Vv8i3Q-98" value="+ readNextLine(sc: Scanner) :Â String" style="text;align=left;verticalAlign=top;spacingLeft=4;spacingRight=4;overflow=hidden;rotatable=0;points=[[0,0.5],[1,0.5]];portConstraint=eastwest;" vertex="1" parent="6pwyPwWgQ0DsB0Vv8i3Q-61">
          <mxGeometry y="918" width="370" height="26" as="geometry" />
        </mxCell>
        <mxCell id="6pwyPwWgQ0DsB0Vv8i3Q-99" value="+ readGameID(line: String) :Â GameID" style="text;align=left;verticalAlign=top;spacingLeft=4;spacingRight=4;overflow=hidden;rotatable=0;points=[[0,0.5],[1,0.5]];portConstraint=eastwest;" vertex="1" parent="6pwyPwWgQ0DsB0Vv8i3Q-61">
          <mxGeometry y="944" width="370" height="26" as="geometry" />
        </mxCell>
        <mxCell id="6pwyPwWgQ0DsB0Vv8i3Q-100" value="+ isPlayerOnExit() : boolean" style="text;align=left;verticalAlign=top;spacingLeft=4;spacingRight=4;overflow=hidden;rotatable=0;points=[[0,0.5],[1,0.5]];portConstraint=eastwest;" vertex="1" parent="6pwyPwWgQ0DsB0Vv8i3Q-61">
          <mxGeometry y="970" width="370" height="26" as="geometry" />
        </mxCell>
        <mxCell id="6pwyPwWgQ0DsB0Vv8i3Q-101" value="+ getCellLuminosity(row : int, col : int) : int" style="text;align=left;verticalAlign=top;spacingLeft=4;spacingRight=4;overflow=hidden;rotatable=0;points=[[0,0.5],[1,0.5]];portConstraint=eastwest;" vertex="1" parent="6pwyPwWgQ0DsB0Vv8i3Q-61">
          <mxGeometry y="996" width="370" height="26" as="geometry" />
        </mxCell>
        <mxCell id="6pwyPwWgQ0DsB0Vv8i3Q-103" value="+ isCellOutOfVision(row : int, col : int) : boolean" style="text;align=left;verticalAlign=top;spacingLeft=4;spacingRight=4;overflow=hidden;rotatable=0;points=[[0,0.5],[1,0.5]];portConstraint=eastwest;" vertex="1" parent="6pwyPwWgQ0DsB0Vv8i3Q-61">
          <mxGeometry y="1022" width="370" height="26" as="geometry" />
        </mxCell>
        <mxCell id="6pwyPwWgQ0DsB0Vv8i3Q-111" style="edgeStyle=orthogonalEdgeStyle;rounded=0;orthogonalLoop=1;jettySize=auto;html=1;" edge="1" parent="WIyWlLk6GJQsqaUBKTNV-1" source="6pwyPwWgQ0DsB0Vv8i3Q-105" target="6pwyPwWgQ0DsB0Vv8i3Q-61">
          <mxGeometry relative="1" as="geometry" />
        </mxCell>
        <mxCell id="6pwyPwWgQ0DsB0Vv8i3Q-105" value="GameID" style="swimlane;fontStyle=0;align=center;verticalAlign=top;childLayout=stackLayout;horizontal=1;startSize=26;horizontalStack=0;resizeParent=1;resizeLast=0;collapsible=1;marginBottom=0;rounded=0;shadow=0;strokeWidth=1;" vertex="1" parent="WIyWlLk6GJQsqaUBKTNV-1">
          <mxGeometry x="847" y="930" width="180" height="138" as="geometry">
            <mxRectangle x="340" y="380" width="170" height="26" as="alternateBounds" />
          </mxGeometry>
        </mxCell>
        <mxCell id="6pwyPwWgQ0DsB0Vv8i3Q-106" value="- difficulty : String" style="text;align=left;verticalAlign=top;spacingLeft=4;spacingRight=4;overflow=hidden;rotatable=0;points=[[0,0.5],[1,0.5]];portConstraint=eastwest;" vertex="1" parent="6pwyPwWgQ0DsB0Vv8i3Q-105">
          <mxGeometry y="26" width="180" height="26" as="geometry" />
        </mxCell>
        <mxCell id="6pwyPwWgQ0DsB0Vv8i3Q-109" value="- level : int" style="text;align=left;verticalAlign=top;spacingLeft=4;spacingRight=4;overflow=hidden;rotatable=0;points=[[0,0.5],[1,0.5]];portConstraint=eastwest;" vertex="1" parent="6pwyPwWgQ0DsB0Vv8i3Q-105">
          <mxGeometry y="52" width="180" height="26" as="geometry" />
        </mxCell>
        <mxCell id="6pwyPwWgQ0DsB0Vv8i3Q-107" value="" style="line;html=1;strokeWidth=1;align=left;verticalAlign=middle;spacingTop=-1;spacingLeft=3;spacingRight=3;rotatable=0;labelPosition=right;points=[];portConstraint=eastwest;" vertex="1" parent="6pwyPwWgQ0DsB0Vv8i3Q-105">
          <mxGeometry y="78" width="180" height="8" as="geometry" />
        </mxCell>
        <mxCell id="6pwyPwWgQ0DsB0Vv8i3Q-108" value="+ hashCode() : int" style="text;align=left;verticalAlign=top;spacingLeft=4;spacingRight=4;overflow=hidden;rotatable=0;points=[[0,0.5],[1,0.5]];portConstraint=eastwest;" vertex="1" parent="6pwyPwWgQ0DsB0Vv8i3Q-105">
          <mxGeometry y="86" width="180" height="26" as="geometry" />
        </mxCell>
        <mxCell id="6pwyPwWgQ0DsB0Vv8i3Q-110" value="+ equals(obj : Object) : boolean" style="text;align=left;verticalAlign=top;spacingLeft=4;spacingRight=4;overflow=hidden;rotatable=0;points=[[0,0.5],[1,0.5]];portConstraint=eastwest;" vertex="1" parent="6pwyPwWgQ0DsB0Vv8i3Q-105">
          <mxGeometry y="112" width="180" height="26" as="geometry" />
        </mxCell>
        <mxCell id="6pwyPwWgQ0DsB0Vv8i3Q-173" style="edgeStyle=orthogonalEdgeStyle;rounded=0;orthogonalLoop=1;jettySize=auto;html=1;" edge="1" parent="WIyWlLk6GJQsqaUBKTNV-1" source="6pwyPwWgQ0DsB0Vv8i3Q-112" target="6pwyPwWgQ0DsB0Vv8i3Q-61">
          <mxGeometry relative="1" as="geometry">
            <Array as="points">
              <mxPoint x="1480" y="132" />
              <mxPoint x="1480" y="655" />
            </Array>
          </mxGeometry>
        </mxCell>
        <mxCell id="6pwyPwWgQ0DsB0Vv8i3Q-112" value="Model" style="swimlane;fontStyle=0;align=center;verticalAlign=top;childLayout=stackLayout;horizontal=1;startSize=26;horizontalStack=0;resizeParent=1;resizeLast=0;collapsible=1;marginBottom=0;rounded=0;shadow=0;strokeWidth=1;" vertex="1" parent="WIyWlLk6GJQsqaUBKTNV-1">
          <mxGeometry x="1520" y="-80" width="220" height="424" as="geometry">
            <mxRectangle x="340" y="380" width="170" height="26" as="alternateBounds" />
          </mxGeometry>
        </mxCell>
        <mxCell id="6pwyPwWgQ0DsB0Vv8i3Q-113" value="- table : short [][]" style="text;align=left;verticalAlign=top;spacingLeft=4;spacingRight=4;overflow=hidden;rotatable=0;points=[[0,0.5],[1,0.5]];portConstraint=eastwest;" vertex="1" parent="6pwyPwWgQ0DsB0Vv8i3Q-112">
          <mxGeometry y="26" width="220" height="26" as="geometry" />
        </mxCell>
        <mxCell id="6pwyPwWgQ0DsB0Vv8i3Q-114" value="- isBusy : boolean" style="text;align=left;verticalAlign=top;spacingLeft=4;spacingRight=4;overflow=hidden;rotatable=0;points=[[0,0.5],[1,0.5]];portConstraint=eastwest;" vertex="1" parent="6pwyPwWgQ0DsB0Vv8i3Q-112">
          <mxGeometry y="52" width="220" height="26" as="geometry" />
        </mxCell>
        <mxCell id="6pwyPwWgQ0DsB0Vv8i3Q-115" value="- isHunterTurn : boolean" style="text;align=left;verticalAlign=top;spacingLeft=4;spacingRight=4;overflow=hidden;rotatable=0;points=[[0,0.5],[1,0.5]];portConstraint=eastwest;" vertex="1" parent="6pwyPwWgQ0DsB0Vv8i3Q-112">
          <mxGeometry y="78" width="220" height="26" as="geometry" />
        </mxCell>
        <mxCell id="6pwyPwWgQ0DsB0Vv8i3Q-116" value="- hunters : Hunter[][]" style="text;align=left;verticalAlign=top;spacingLeft=4;spacingRight=4;overflow=hidden;rotatable=0;points=[[0,0.5],[1,0.5]];portConstraint=eastwest;" vertex="1" parent="6pwyPwWgQ0DsB0Vv8i3Q-112">
          <mxGeometry y="104" width="220" height="26" as="geometry" />
        </mxCell>
        <mxCell id="6pwyPwWgQ0DsB0Vv8i3Q-117" value="- selectedHunter : Hunter" style="text;align=left;verticalAlign=top;spacingLeft=4;spacingRight=4;overflow=hidden;rotatable=0;points=[[0,0.5],[1,0.5]];portConstraint=eastwest;" vertex="1" parent="6pwyPwWgQ0DsB0Vv8i3Q-112">
          <mxGeometry y="130" width="220" height="26" as="geometry" />
        </mxCell>
        <mxCell id="6pwyPwWgQ0DsB0Vv8i3Q-118" value="- player : Player" style="text;align=left;verticalAlign=top;spacingLeft=4;spacingRight=4;overflow=hidden;rotatable=0;points=[[0,0.5],[1,0.5]];portConstraint=eastwest;" vertex="1" parent="6pwyPwWgQ0DsB0Vv8i3Q-112">
          <mxGeometry y="156" width="220" height="26" as="geometry" />
        </mxCell>
        <mxCell id="6pwyPwWgQ0DsB0Vv8i3Q-119" value="- window : GameWindow" style="text;align=left;verticalAlign=top;spacingLeft=4;spacingRight=4;overflow=hidden;rotatable=0;points=[[0,0.5],[1,0.5]];portConstraint=eastwest;" vertex="1" parent="6pwyPwWgQ0DsB0Vv8i3Q-112">
          <mxGeometry y="182" width="220" height="26" as="geometry" />
        </mxCell>
        <mxCell id="6pwyPwWgQ0DsB0Vv8i3Q-120" value="- size : int" style="text;align=left;verticalAlign=top;spacingLeft=4;spacingRight=4;overflow=hidden;rotatable=0;points=[[0,0.5],[1,0.5]];portConstraint=eastwest;" vertex="1" parent="6pwyPwWgQ0DsB0Vv8i3Q-112">
          <mxGeometry y="208" width="220" height="26" as="geometry" />
        </mxCell>
        <mxCell id="6pwyPwWgQ0DsB0Vv8i3Q-121" value="- countTurns : int" style="text;align=left;verticalAlign=top;spacingLeft=4;spacingRight=4;overflow=hidden;rotatable=0;points=[[0,0.5],[1,0.5]];portConstraint=eastwest;" vertex="1" parent="6pwyPwWgQ0DsB0Vv8i3Q-112">
          <mxGeometry y="234" width="220" height="26" as="geometry" />
        </mxCell>
        <mxCell id="6pwyPwWgQ0DsB0Vv8i3Q-122" value="" style="line;html=1;strokeWidth=1;align=left;verticalAlign=middle;spacingTop=-1;spacingLeft=3;spacingRight=3;rotatable=0;labelPosition=right;points=[];portConstraint=eastwest;" vertex="1" parent="6pwyPwWgQ0DsB0Vv8i3Q-112">
          <mxGeometry y="260" width="220" height="8" as="geometry" />
        </mxCell>
        <mxCell id="6pwyPwWgQ0DsB0Vv8i3Q-123" value="+ makeMove (row : int, col : int)" style="text;align=left;verticalAlign=top;spacingLeft=4;spacingRight=4;overflow=hidden;rotatable=0;points=[[0,0.5],[1,0.5]];portConstraint=eastwest;" vertex="1" parent="6pwyPwWgQ0DsB0Vv8i3Q-112">
          <mxGeometry y="268" width="220" height="26" as="geometry" />
        </mxCell>
        <mxCell id="6pwyPwWgQ0DsB0Vv8i3Q-124" value="+ getCharacter (row : int, col : int) : int" style="text;align=left;verticalAlign=top;spacingLeft=4;spacingRight=4;overflow=hidden;rotatable=0;points=[[0,0.5],[1,0.5]];portConstraint=eastwest;" vertex="1" parent="6pwyPwWgQ0DsB0Vv8i3Q-112">
          <mxGeometry y="294" width="220" height="26" as="geometry" />
        </mxCell>
        <mxCell id="6pwyPwWgQ0DsB0Vv8i3Q-125" value="- isPlayerSurrounded() : boolean" style="text;align=left;verticalAlign=top;spacingLeft=4;spacingRight=4;overflow=hidden;rotatable=0;points=[[0,0.5],[1,0.5]];portConstraint=eastwest;" vertex="1" parent="6pwyPwWgQ0DsB0Vv8i3Q-112">
          <mxGeometry y="320" width="220" height="26" as="geometry" />
        </mxCell>
        <mxCell id="6pwyPwWgQ0DsB0Vv8i3Q-126" value="+ getCurrentCharacter() : String" style="text;align=left;verticalAlign=top;spacingLeft=4;spacingRight=4;overflow=hidden;rotatable=0;points=[[0,0.5],[1,0.5]];portConstraint=eastwest;" vertex="1" parent="6pwyPwWgQ0DsB0Vv8i3Q-112">
          <mxGeometry y="346" width="220" height="26" as="geometry" />
        </mxCell>
        <mxCell id="6pwyPwWgQ0DsB0Vv8i3Q-127" value="+ getHunterSteps() : String" style="text;align=left;verticalAlign=top;spacingLeft=4;spacingRight=4;overflow=hidden;rotatable=0;points=[[0,0.5],[1,0.5]];portConstraint=eastwest;" vertex="1" parent="6pwyPwWgQ0DsB0Vv8i3Q-112">
          <mxGeometry y="372" width="220" height="26" as="geometry" />
        </mxCell>
        <mxCell id="6pwyPwWgQ0DsB0Vv8i3Q-128" value="+ getMaxSteps () : String" style="text;align=left;verticalAlign=top;spacingLeft=4;spacingRight=4;overflow=hidden;rotatable=0;points=[[0,0.5],[1,0.5]];portConstraint=eastwest;" vertex="1" parent="6pwyPwWgQ0DsB0Vv8i3Q-112">
          <mxGeometry y="398" width="220" height="26" as="geometry" />
        </mxCell>
        <mxCell id="6pwyPwWgQ0DsB0Vv8i3Q-172" style="edgeStyle=orthogonalEdgeStyle;rounded=0;orthogonalLoop=1;jettySize=auto;html=1;" edge="1" parent="WIyWlLk6GJQsqaUBKTNV-1" source="6pwyPwWgQ0DsB0Vv8i3Q-129" target="6pwyPwWgQ0DsB0Vv8i3Q-61">
          <mxGeometry relative="1" as="geometry">
            <Array as="points">
              <mxPoint x="1480" y="680" />
              <mxPoint x="1480" y="655" />
            </Array>
          </mxGeometry>
        </mxCell>
        <mxCell id="6pwyPwWgQ0DsB0Vv8i3Q-129" value="GameLevel" style="swimlane;fontStyle=0;align=center;verticalAlign=top;childLayout=stackLayout;horizontal=1;startSize=26;horizontalStack=0;resizeParent=1;resizeLast=0;collapsible=1;marginBottom=0;rounded=0;shadow=0;strokeWidth=1;" vertex="1" parent="WIyWlLk6GJQsqaUBKTNV-1">
          <mxGeometry x="1510" y="390" width="280" height="580" as="geometry">
            <mxRectangle x="340" y="380" width="170" height="26" as="alternateBounds" />
          </mxGeometry>
        </mxCell>
        <mxCell id="6pwyPwWgQ0DsB0Vv8i3Q-130" value="+Â InvalidDragonPositionException" style="text;align=left;verticalAlign=top;spacingLeft=4;spacingRight=4;overflow=hidden;rotatable=0;points=[[0,0.5],[1,0.5]];portConstraint=eastwest;" vertex="1" parent="6pwyPwWgQ0DsB0Vv8i3Q-129">
          <mxGeometry y="26" width="280" height="26" as="geometry" />
        </mxCell>
        <mxCell id="6pwyPwWgQ0DsB0Vv8i3Q-131" value="+ gameID : GameID" style="text;align=left;verticalAlign=top;spacingLeft=4;spacingRight=4;overflow=hidden;rotatable=0;points=[[0,0.5],[1,0.5]];portConstraint=eastwest;" vertex="1" parent="6pwyPwWgQ0DsB0Vv8i3Q-129">
          <mxGeometry y="52" width="280" height="26" as="geometry" />
        </mxCell>
        <mxCell id="6pwyPwWgQ0DsB0Vv8i3Q-132" value="+ rows : int" style="text;align=left;verticalAlign=top;spacingLeft=4;spacingRight=4;overflow=hidden;rotatable=0;points=[[0,0.5],[1,0.5]];portConstraint=eastwest;" vertex="1" parent="6pwyPwWgQ0DsB0Vv8i3Q-129">
          <mxGeometry y="78" width="280" height="26" as="geometry" />
        </mxCell>
        <mxCell id="6pwyPwWgQ0DsB0Vv8i3Q-146" value="+ cols : int" style="text;align=left;verticalAlign=top;spacingLeft=4;spacingRight=4;overflow=hidden;rotatable=0;points=[[0,0.5],[1,0.5]];portConstraint=eastwest;" vertex="1" parent="6pwyPwWgQ0DsB0Vv8i3Q-129">
          <mxGeometry y="104" width="280" height="26" as="geometry" />
        </mxCell>
        <mxCell id="6pwyPwWgQ0DsB0Vv8i3Q-133" value="+ level : LevelItem[][]" style="text;align=left;verticalAlign=top;spacingLeft=4;spacingRight=4;overflow=hidden;rotatable=0;points=[[0,0.5],[1,0.5]];portConstraint=eastwest;" vertex="1" parent="6pwyPwWgQ0DsB0Vv8i3Q-129">
          <mxGeometry y="130" width="280" height="26" as="geometry" />
        </mxCell>
        <mxCell id="6pwyPwWgQ0DsB0Vv8i3Q-134" value="+ player : Position" style="text;align=left;verticalAlign=top;spacingLeft=4;spacingRight=4;overflow=hidden;rotatable=0;points=[[0,0.5],[1,0.5]];portConstraint=eastwest;" vertex="1" parent="6pwyPwWgQ0DsB0Vv8i3Q-129">
          <mxGeometry y="156" width="280" height="26" as="geometry" />
        </mxCell>
        <mxCell id="6pwyPwWgQ0DsB0Vv8i3Q-135" value="+ dragon : Position" style="text;align=left;verticalAlign=top;spacingLeft=4;spacingRight=4;overflow=hidden;rotatable=0;points=[[0,0.5],[1,0.5]];portConstraint=eastwest;" vertex="1" parent="6pwyPwWgQ0DsB0Vv8i3Q-129">
          <mxGeometry y="182" width="280" height="26" as="geometry" />
        </mxCell>
        <mxCell id="6pwyPwWgQ0DsB0Vv8i3Q-136" value="- gameEnded : boolean" style="text;align=left;verticalAlign=top;spacingLeft=4;spacingRight=4;overflow=hidden;rotatable=0;points=[[0,0.5],[1,0.5]];portConstraint=eastwest;" vertex="1" parent="6pwyPwWgQ0DsB0Vv8i3Q-129">
          <mxGeometry y="208" width="280" height="26" as="geometry" />
        </mxCell>
        <mxCell id="6pwyPwWgQ0DsB0Vv8i3Q-137" value="- dragonDirection : Direction" style="text;align=left;verticalAlign=top;spacingLeft=4;spacingRight=4;overflow=hidden;rotatable=0;points=[[0,0.5],[1,0.5]];portConstraint=eastwest;" vertex="1" parent="6pwyPwWgQ0DsB0Vv8i3Q-129">
          <mxGeometry y="234" width="280" height="26" as="geometry" />
        </mxCell>
        <mxCell id="6pwyPwWgQ0DsB0Vv8i3Q-138" value="+ lightMap : short[][]" style="text;align=left;verticalAlign=top;spacingLeft=4;spacingRight=4;overflow=hidden;rotatable=0;points=[[0,0.5],[1,0.5]];portConstraint=eastwest;" vertex="1" parent="6pwyPwWgQ0DsB0Vv8i3Q-129">
          <mxGeometry y="260" width="280" height="26" as="geometry" />
        </mxCell>
        <mxCell id="6pwyPwWgQ0DsB0Vv8i3Q-147" value="+ VISION_RANGE : short" style="text;align=left;verticalAlign=top;spacingLeft=4;spacingRight=4;overflow=hidden;rotatable=0;points=[[0,0.5],[1,0.5]];portConstraint=eastwest;" vertex="1" parent="6pwyPwWgQ0DsB0Vv8i3Q-129">
          <mxGeometry y="286" width="280" height="26" as="geometry" />
        </mxCell>
        <mxCell id="6pwyPwWgQ0DsB0Vv8i3Q-139" value="" style="line;html=1;strokeWidth=1;align=left;verticalAlign=middle;spacingTop=-1;spacingLeft=3;spacingRight=3;rotatable=0;labelPosition=right;points=[];portConstraint=eastwest;" vertex="1" parent="6pwyPwWgQ0DsB0Vv8i3Q-129">
          <mxGeometry y="312" width="280" height="8" as="geometry" />
        </mxCell>
        <mxCell id="6pwyPwWgQ0DsB0Vv8i3Q-140" value="+ isValidPosition(p : Position)" style="text;align=left;verticalAlign=top;spacingLeft=4;spacingRight=4;overflow=hidden;rotatable=0;points=[[0,0.5],[1,0.5]];portConstraint=eastwest;" vertex="1" parent="6pwyPwWgQ0DsB0Vv8i3Q-129">
          <mxGeometry y="320" width="280" height="26" as="geometry" />
        </mxCell>
        <mxCell id="6pwyPwWgQ0DsB0Vv8i3Q-141" value="+ isFree(p : Position, isDragon: boolean) : boolean" style="text;align=left;verticalAlign=top;spacingLeft=4;spacingRight=4;overflow=hidden;rotatable=0;points=[[0,0.5],[1,0.5]];portConstraint=eastwest;" vertex="1" parent="6pwyPwWgQ0DsB0Vv8i3Q-129">
          <mxGeometry y="346" width="280" height="26" as="geometry" />
        </mxCell>
        <mxCell id="6pwyPwWgQ0DsB0Vv8i3Q-142" value="+ movePlayer(d : Direction) : boolean" style="text;align=left;verticalAlign=top;spacingLeft=4;spacingRight=4;overflow=hidden;rotatable=0;points=[[0,0.5],[1,0.5]];portConstraint=eastwest;" vertex="1" parent="6pwyPwWgQ0DsB0Vv8i3Q-129">
          <mxGeometry y="372" width="280" height="26" as="geometry" />
        </mxCell>
        <mxCell id="6pwyPwWgQ0DsB0Vv8i3Q-143" value="+ moveDragon() : boolean" style="text;align=left;verticalAlign=top;spacingLeft=4;spacingRight=4;overflow=hidden;rotatable=0;points=[[0,0.5],[1,0.5]];portConstraint=eastwest;" vertex="1" parent="6pwyPwWgQ0DsB0Vv8i3Q-129">
          <mxGeometry y="398" width="280" height="26" as="geometry" />
        </mxCell>
        <mxCell id="6pwyPwWgQ0DsB0Vv8i3Q-144" value="+ arePalyerDragonAdjacent() : boolean" style="text;align=left;verticalAlign=top;spacingLeft=4;spacingRight=4;overflow=hidden;rotatable=0;points=[[0,0.5],[1,0.5]];portConstraint=eastwest;" vertex="1" parent="6pwyPwWgQ0DsB0Vv8i3Q-129">
          <mxGeometry y="424" width="280" height="26" as="geometry" />
        </mxCell>
        <mxCell id="6pwyPwWgQ0DsB0Vv8i3Q-145" value="+ updateLighMap() : boolean" style="text;align=left;verticalAlign=top;spacingLeft=4;spacingRight=4;overflow=hidden;rotatable=0;points=[[0,0.5],[1,0.5]];portConstraint=eastwest;" vertex="1" parent="6pwyPwWgQ0DsB0Vv8i3Q-129">
          <mxGeometry y="450" width="280" height="26" as="geometry" />
        </mxCell>
        <mxCell id="6pwyPwWgQ0DsB0Vv8i3Q-149" value="+ gameEnd(playerWin : boolean)" style="text;align=left;verticalAlign=top;spacingLeft=4;spacingRight=4;overflow=hidden;rotatable=0;points=[[0,0.5],[1,0.5]];portConstraint=eastwest;" vertex="1" parent="6pwyPwWgQ0DsB0Vv8i3Q-129">
          <mxGeometry y="476" width="280" height="26" as="geometry" />
        </mxCell>
        <mxCell id="6pwyPwWgQ0DsB0Vv8i3Q-150" value="+ printLevel()" style="text;align=left;verticalAlign=top;spacingLeft=4;spacingRight=4;overflow=hidden;rotatable=0;points=[[0,0.5],[1,0.5]];portConstraint=eastwest;" vertex="1" parent="6pwyPwWgQ0DsB0Vv8i3Q-129">
          <mxGeometry y="502" width="280" height="26" as="geometry" />
        </mxCell>
        <mxCell id="6pwyPwWgQ0DsB0Vv8i3Q-148" value="+ hasGameEnded() : boolean" style="text;align=left;verticalAlign=top;spacingLeft=4;spacingRight=4;overflow=hidden;rotatable=0;points=[[0,0.5],[1,0.5]];portConstraint=eastwest;" vertex="1" parent="6pwyPwWgQ0DsB0Vv8i3Q-129">
          <mxGeometry y="528" width="280" height="26" as="geometry" />
        </mxCell>
        <mxCell id="6pwyPwWgQ0DsB0Vv8i3Q-151" value="+ isPlayerOnExit() : boolean" style="text;align=left;verticalAlign=top;spacingLeft=4;spacingRight=4;overflow=hidden;rotatable=0;points=[[0,0.5],[1,0.5]];portConstraint=eastwest;" vertex="1" parent="6pwyPwWgQ0DsB0Vv8i3Q-129">
          <mxGeometry y="554" width="280" height="26" as="geometry" />
        </mxCell>
        <mxCell id="6pwyPwWgQ0DsB0Vv8i3Q-171" style="edgeStyle=orthogonalEdgeStyle;rounded=0;orthogonalLoop=1;jettySize=auto;html=1;" edge="1" parent="WIyWlLk6GJQsqaUBKTNV-1" source="6pwyPwWgQ0DsB0Vv8i3Q-152" target="6pwyPwWgQ0DsB0Vv8i3Q-61">
          <mxGeometry relative="1" as="geometry">
            <Array as="points">
              <mxPoint x="1480" y="1090" />
              <mxPoint x="1480" y="655" />
            </Array>
          </mxGeometry>
        </mxCell>
        <mxCell id="6pwyPwWgQ0DsB0Vv8i3Q-152" value="&lt;enum&gt;&#xa;Leveltem" style="swimlane;fontStyle=0;align=center;verticalAlign=top;childLayout=stackLayout;horizontal=1;startSize=40;horizontalStack=0;resizeParent=1;resizeLast=0;collapsible=1;marginBottom=0;rounded=0;shadow=0;strokeWidth=1;fontSize=12;" vertex="1" parent="WIyWlLk6GJQsqaUBKTNV-1">
          <mxGeometry x="1500" y="1011" width="200" height="158" as="geometry">
            <mxRectangle x="820" y="760" width="170" height="26" as="alternateBounds" />
          </mxGeometry>
        </mxCell>
        <mxCell id="6pwyPwWgQ0DsB0Vv8i3Q-153" value="DESTINATION" style="text;align=left;verticalAlign=top;spacingLeft=4;spacingRight=4;overflow=hidden;rotatable=0;points=[[0,0.5],[1,0.5]];portConstraint=eastwest;" vertex="1" parent="6pwyPwWgQ0DsB0Vv8i3Q-152">
          <mxGeometry y="40" width="200" height="26" as="geometry" />
        </mxCell>
        <mxCell id="6pwyPwWgQ0DsB0Vv8i3Q-154" value="WALL" style="text;align=left;verticalAlign=top;spacingLeft=4;spacingRight=4;overflow=hidden;rotatable=0;points=[[0,0.5],[1,0.5]];portConstraint=eastwest;" vertex="1" parent="6pwyPwWgQ0DsB0Vv8i3Q-152">
          <mxGeometry y="66" width="200" height="26" as="geometry" />
        </mxCell>
        <mxCell id="6pwyPwWgQ0DsB0Vv8i3Q-155" value="EMPTY" style="text;align=left;verticalAlign=top;spacingLeft=4;spacingRight=4;overflow=hidden;rotatable=0;points=[[0,0.5],[1,0.5]];portConstraint=eastwest;" vertex="1" parent="6pwyPwWgQ0DsB0Vv8i3Q-152">
          <mxGeometry y="92" width="200" height="26" as="geometry" />
        </mxCell>
        <mxCell id="6pwyPwWgQ0DsB0Vv8i3Q-163" value="+ representation : char" style="text;align=left;verticalAlign=top;spacingLeft=4;spacingRight=4;overflow=hidden;rotatable=0;points=[[0,0.5],[1,0.5]];portConstraint=eastwest;" vertex="1" parent="6pwyPwWgQ0DsB0Vv8i3Q-152">
          <mxGeometry y="118" width="200" height="26" as="geometry" />
        </mxCell>
        <mxCell id="6pwyPwWgQ0DsB0Vv8i3Q-159" value="" style="line;html=1;strokeWidth=1;align=left;verticalAlign=middle;spacingTop=-1;spacingLeft=3;spacingRight=3;rotatable=0;labelPosition=right;points=[];portConstraint=eastwest;" vertex="1" parent="6pwyPwWgQ0DsB0Vv8i3Q-152">
          <mxGeometry y="144" width="200" height="8" as="geometry" />
        </mxCell>
        <mxCell id="6pwyPwWgQ0DsB0Vv8i3Q-170" style="edgeStyle=orthogonalEdgeStyle;rounded=0;orthogonalLoop=1;jettySize=auto;html=1;" edge="1" parent="WIyWlLk6GJQsqaUBKTNV-1" source="6pwyPwWgQ0DsB0Vv8i3Q-164" target="6pwyPwWgQ0DsB0Vv8i3Q-61">
          <mxGeometry relative="1" as="geometry" />
        </mxCell>
        <mxCell id="6pwyPwWgQ0DsB0Vv8i3Q-164" value="Position" style="swimlane;fontStyle=0;align=center;verticalAlign=top;childLayout=stackLayout;horizontal=1;startSize=26;horizontalStack=0;resizeParent=1;resizeLast=0;collapsible=1;marginBottom=0;rounded=0;shadow=0;strokeWidth=1;" vertex="1" parent="WIyWlLk6GJQsqaUBKTNV-1">
          <mxGeometry x="827" y="1100" width="200" height="112" as="geometry">
            <mxRectangle x="340" y="380" width="170" height="26" as="alternateBounds" />
          </mxGeometry>
        </mxCell>
        <mxCell id="6pwyPwWgQ0DsB0Vv8i3Q-165" value="+ x : int" style="text;align=left;verticalAlign=top;spacingLeft=4;spacingRight=4;overflow=hidden;rotatable=0;points=[[0,0.5],[1,0.5]];portConstraint=eastwest;" vertex="1" parent="6pwyPwWgQ0DsB0Vv8i3Q-164">
          <mxGeometry y="26" width="200" height="26" as="geometry" />
        </mxCell>
        <mxCell id="6pwyPwWgQ0DsB0Vv8i3Q-166" value="+ y : int" style="text;align=left;verticalAlign=top;spacingLeft=4;spacingRight=4;overflow=hidden;rotatable=0;points=[[0,0.5],[1,0.5]];portConstraint=eastwest;" vertex="1" parent="6pwyPwWgQ0DsB0Vv8i3Q-164">
          <mxGeometry y="52" width="200" height="26" as="geometry" />
        </mxCell>
        <mxCell id="6pwyPwWgQ0DsB0Vv8i3Q-167" value="" style="line;html=1;strokeWidth=1;align=left;verticalAlign=middle;spacingTop=-1;spacingLeft=3;spacingRight=3;rotatable=0;labelPosition=right;points=[];portConstraint=eastwest;" vertex="1" parent="6pwyPwWgQ0DsB0Vv8i3Q-164">
          <mxGeometry y="78" width="200" height="8" as="geometry" />
        </mxCell>
        <mxCell id="6pwyPwWgQ0DsB0Vv8i3Q-168" value="+ translate(d : Direction) : Position" style="text;align=left;verticalAlign=top;spacingLeft=4;spacingRight=4;overflow=hidden;rotatable=0;points=[[0,0.5],[1,0.5]];portConstraint=eastwest;" vertex="1" parent="6pwyPwWgQ0DsB0Vv8i3Q-164">
          <mxGeometry y="86" width="200" height="26" as="geometry" />
        </mxCell>
        <mxCell id="6pwyPwWgQ0DsB0Vv8i3Q-208" style="edgeStyle=orthogonalEdgeStyle;rounded=0;orthogonalLoop=1;jettySize=auto;html=1;" edge="1" parent="WIyWlLk6GJQsqaUBKTNV-1" source="6pwyPwWgQ0DsB0Vv8i3Q-174" target="6pwyPwWgQ0DsB0Vv8i3Q-198">
          <mxGeometry relative="1" as="geometry" />
        </mxCell>
        <mxCell id="6pwyPwWgQ0DsB0Vv8i3Q-174" value="HighScores" style="swimlane;fontStyle=0;align=center;verticalAlign=top;childLayout=stackLayout;horizontal=1;startSize=26;horizontalStack=0;resizeParent=1;resizeLast=0;collapsible=1;marginBottom=0;rounded=0;shadow=0;strokeWidth=1;" vertex="1" parent="WIyWlLk6GJQsqaUBKTNV-1">
          <mxGeometry x="1050" y="1240" width="310" height="268" as="geometry">
            <mxRectangle x="340" y="380" width="170" height="26" as="alternateBounds" />
          </mxGeometry>
        </mxCell>
        <mxCell id="6pwyPwWgQ0DsB0Vv8i3Q-175" value="- maxScores : int" style="text;align=left;verticalAlign=top;spacingLeft=4;spacingRight=4;overflow=hidden;rotatable=0;points=[[0,0.5],[1,0.5]];portConstraint=eastwest;" vertex="1" parent="6pwyPwWgQ0DsB0Vv8i3Q-174">
          <mxGeometry y="26" width="310" height="26" as="geometry" />
        </mxCell>
        <mxCell id="6pwyPwWgQ0DsB0Vv8i3Q-176" value="- insertStatement : PreparedStatement" style="text;align=left;verticalAlign=top;spacingLeft=4;spacingRight=4;overflow=hidden;rotatable=0;points=[[0,0.5],[1,0.5]];portConstraint=eastwest;" vertex="1" parent="6pwyPwWgQ0DsB0Vv8i3Q-174">
          <mxGeometry y="52" width="310" height="26" as="geometry" />
        </mxCell>
        <mxCell id="6pwyPwWgQ0DsB0Vv8i3Q-180" value="- deleteStatement : PreparedStatement" style="text;align=left;verticalAlign=top;spacingLeft=4;spacingRight=4;overflow=hidden;rotatable=0;points=[[0,0.5],[1,0.5]];portConstraint=eastwest;" vertex="1" parent="6pwyPwWgQ0DsB0Vv8i3Q-174">
          <mxGeometry y="78" width="310" height="26" as="geometry" />
        </mxCell>
        <mxCell id="6pwyPwWgQ0DsB0Vv8i3Q-181" value="- connection : Connection" style="text;align=left;verticalAlign=top;spacingLeft=4;spacingRight=4;overflow=hidden;rotatable=0;points=[[0,0.5],[1,0.5]];portConstraint=eastwest;" vertex="1" parent="6pwyPwWgQ0DsB0Vv8i3Q-174">
          <mxGeometry y="104" width="310" height="26" as="geometry" />
        </mxCell>
        <mxCell id="6pwyPwWgQ0DsB0Vv8i3Q-177" value="" style="line;html=1;strokeWidth=1;align=left;verticalAlign=middle;spacingTop=-1;spacingLeft=3;spacingRight=3;rotatable=0;labelPosition=right;points=[];portConstraint=eastwest;" vertex="1" parent="6pwyPwWgQ0DsB0Vv8i3Q-174">
          <mxGeometry y="130" width="310" height="8" as="geometry" />
        </mxCell>
        <mxCell id="6pwyPwWgQ0DsB0Vv8i3Q-178" value="+ getHighScores() : ArrayList&lt;HighScore&gt;Â " style="text;align=left;verticalAlign=top;spacingLeft=4;spacingRight=4;overflow=hidden;rotatable=0;points=[[0,0.5],[1,0.5]];portConstraint=eastwest;" vertex="1" parent="6pwyPwWgQ0DsB0Vv8i3Q-174">
          <mxGeometry y="138" width="310" height="26" as="geometry" />
        </mxCell>
        <mxCell id="6pwyPwWgQ0DsB0Vv8i3Q-179" value="+ putHighScore(name : String, score : int, totalTime : int)" style="text;align=left;verticalAlign=top;spacingLeft=4;spacingRight=4;overflow=hidden;rotatable=0;points=[[0,0.5],[1,0.5]];portConstraint=eastwest;" vertex="1" parent="6pwyPwWgQ0DsB0Vv8i3Q-174">
          <mxGeometry y="164" width="310" height="26" as="geometry" />
        </mxCell>
        <mxCell id="6pwyPwWgQ0DsB0Vv8i3Q-182" value="+ sortHighScores(highScores : ArrayList&lt;HighScore&gt;)" style="text;align=left;verticalAlign=top;spacingLeft=4;spacingRight=4;overflow=hidden;rotatable=0;points=[[0,0.5],[1,0.5]];portConstraint=eastwest;" vertex="1" parent="6pwyPwWgQ0DsB0Vv8i3Q-174">
          <mxGeometry y="190" width="310" height="26" as="geometry" />
        </mxCell>
        <mxCell id="6pwyPwWgQ0DsB0Vv8i3Q-184" value="+ insertScore(name : String, score : int, totalTime : int)" style="text;align=left;verticalAlign=top;spacingLeft=4;spacingRight=4;overflow=hidden;rotatable=0;points=[[0,0.5],[1,0.5]];portConstraint=eastwest;" vertex="1" parent="6pwyPwWgQ0DsB0Vv8i3Q-174">
          <mxGeometry y="216" width="310" height="26" as="geometry" />
        </mxCell>
        <mxCell id="6pwyPwWgQ0DsB0Vv8i3Q-183" value="+ deleteScores(player : Player)" style="text;align=left;verticalAlign=top;spacingLeft=4;spacingRight=4;overflow=hidden;rotatable=0;points=[[0,0.5],[1,0.5]];portConstraint=eastwest;" vertex="1" parent="6pwyPwWgQ0DsB0Vv8i3Q-174">
          <mxGeometry y="242" width="310" height="26" as="geometry" />
        </mxCell>
        <mxCell id="6pwyPwWgQ0DsB0Vv8i3Q-209" style="edgeStyle=orthogonalEdgeStyle;rounded=0;orthogonalLoop=1;jettySize=auto;html=1;" edge="1" parent="WIyWlLk6GJQsqaUBKTNV-1" source="6pwyPwWgQ0DsB0Vv8i3Q-185" target="6pwyPwWgQ0DsB0Vv8i3Q-174">
          <mxGeometry relative="1" as="geometry" />
        </mxCell>
        <mxCell id="6pwyPwWgQ0DsB0Vv8i3Q-185" value="HighScore" style="swimlane;fontStyle=0;align=center;verticalAlign=top;childLayout=stackLayout;horizontal=1;startSize=26;horizontalStack=0;resizeParent=1;resizeLast=0;collapsible=1;marginBottom=0;rounded=0;shadow=0;strokeWidth=1;" vertex="1" parent="WIyWlLk6GJQsqaUBKTNV-1">
          <mxGeometry x="860" y="1280" width="130" height="220" as="geometry">
            <mxRectangle x="340" y="380" width="170" height="26" as="alternateBounds" />
          </mxGeometry>
        </mxCell>
        <mxCell id="6pwyPwWgQ0DsB0Vv8i3Q-186" value="- name : String" style="text;align=left;verticalAlign=top;spacingLeft=4;spacingRight=4;overflow=hidden;rotatable=0;points=[[0,0.5],[1,0.5]];portConstraint=eastwest;" vertex="1" parent="6pwyPwWgQ0DsB0Vv8i3Q-185">
          <mxGeometry y="26" width="130" height="26" as="geometry" />
        </mxCell>
        <mxCell id="6pwyPwWgQ0DsB0Vv8i3Q-187" value="- score : int" style="text;align=left;verticalAlign=top;spacingLeft=4;spacingRight=4;overflow=hidden;rotatable=0;points=[[0,0.5],[1,0.5]];portConstraint=eastwest;" vertex="1" parent="6pwyPwWgQ0DsB0Vv8i3Q-185">
          <mxGeometry y="52" width="130" height="26" as="geometry" />
        </mxCell>
        <mxCell id="6pwyPwWgQ0DsB0Vv8i3Q-188" value="- totalTime : int" style="text;align=left;verticalAlign=top;spacingLeft=4;spacingRight=4;overflow=hidden;rotatable=0;points=[[0,0.5],[1,0.5]];portConstraint=eastwest;" vertex="1" parent="6pwyPwWgQ0DsB0Vv8i3Q-185">
          <mxGeometry y="78" width="130" height="26" as="geometry" />
        </mxCell>
        <mxCell id="6pwyPwWgQ0DsB0Vv8i3Q-190" value="" style="line;html=1;strokeWidth=1;align=left;verticalAlign=middle;spacingTop=-1;spacingLeft=3;spacingRight=3;rotatable=0;labelPosition=right;points=[];portConstraint=eastwest;" vertex="1" parent="6pwyPwWgQ0DsB0Vv8i3Q-185">
          <mxGeometry y="104" width="130" height="8" as="geometry" />
        </mxCell>
        <mxCell id="6pwyPwWgQ0DsB0Vv8i3Q-191" value="+ getName() : String" style="text;align=left;verticalAlign=top;spacingLeft=4;spacingRight=4;overflow=hidden;rotatable=0;points=[[0,0.5],[1,0.5]];portConstraint=eastwest;" vertex="1" parent="6pwyPwWgQ0DsB0Vv8i3Q-185">
          <mxGeometry y="112" width="130" height="26" as="geometry" />
        </mxCell>
        <mxCell id="6pwyPwWgQ0DsB0Vv8i3Q-192" value="+ getScore() : int" style="text;align=left;verticalAlign=top;spacingLeft=4;spacingRight=4;overflow=hidden;rotatable=0;points=[[0,0.5],[1,0.5]];portConstraint=eastwest;" vertex="1" parent="6pwyPwWgQ0DsB0Vv8i3Q-185">
          <mxGeometry y="138" width="130" height="26" as="geometry" />
        </mxCell>
        <mxCell id="6pwyPwWgQ0DsB0Vv8i3Q-196" value="+ getTotalTime() : int" style="text;align=left;verticalAlign=top;spacingLeft=4;spacingRight=4;overflow=hidden;rotatable=0;points=[[0,0.5],[1,0.5]];portConstraint=eastwest;" vertex="1" parent="6pwyPwWgQ0DsB0Vv8i3Q-185">
          <mxGeometry y="164" width="130" height="26" as="geometry" />
        </mxCell>
        <mxCell id="6pwyPwWgQ0DsB0Vv8i3Q-197" value="+ toString() : String" style="text;align=left;verticalAlign=top;spacingLeft=4;spacingRight=4;overflow=hidden;rotatable=0;points=[[0,0.5],[1,0.5]];portConstraint=eastwest;" vertex="1" parent="6pwyPwWgQ0DsB0Vv8i3Q-185">
          <mxGeometry y="190" width="130" height="26" as="geometry" />
        </mxCell>
        <mxCell id="6pwyPwWgQ0DsB0Vv8i3Q-210" style="edgeStyle=orthogonalEdgeStyle;rounded=0;orthogonalLoop=1;jettySize=auto;html=1;" edge="1" parent="WIyWlLk6GJQsqaUBKTNV-1" source="6pwyPwWgQ0DsB0Vv8i3Q-198" target="6pwyPwWgQ0DsB0Vv8i3Q-61">
          <mxGeometry relative="1" as="geometry">
            <mxPoint x="1250" y="1230" as="targetPoint" />
          </mxGeometry>
        </mxCell>
        <mxCell id="6pwyPwWgQ0DsB0Vv8i3Q-198" value="Database" style="swimlane;fontStyle=0;align=center;verticalAlign=top;childLayout=stackLayout;horizontal=1;startSize=26;horizontalStack=0;resizeParent=1;resizeLast=0;collapsible=1;marginBottom=0;rounded=0;shadow=0;strokeWidth=1;" vertex="1" parent="WIyWlLk6GJQsqaUBKTNV-1">
          <mxGeometry x="1393.5" y="1240" width="303" height="114" as="geometry">
            <mxRectangle x="340" y="380" width="170" height="26" as="alternateBounds" />
          </mxGeometry>
        </mxCell>
        <mxCell id="6pwyPwWgQ0DsB0Vv8i3Q-199" value="- highScores : HighScores" style="text;align=left;verticalAlign=top;spacingLeft=4;spacingRight=4;overflow=hidden;rotatable=0;points=[[0,0.5],[1,0.5]];portConstraint=eastwest;" vertex="1" parent="6pwyPwWgQ0DsB0Vv8i3Q-198">
          <mxGeometry y="26" width="303" height="26" as="geometry" />
        </mxCell>
        <mxCell id="6pwyPwWgQ0DsB0Vv8i3Q-202" value="" style="line;html=1;strokeWidth=1;align=left;verticalAlign=middle;spacingTop=-1;spacingLeft=3;spacingRight=3;rotatable=0;labelPosition=right;points=[];portConstraint=eastwest;" vertex="1" parent="6pwyPwWgQ0DsB0Vv8i3Q-198">
          <mxGeometry y="52" width="303" height="8" as="geometry" />
        </mxCell>
        <mxCell id="6pwyPwWgQ0DsB0Vv8i3Q-207" value="+ addRecord(name : String, score : int, totalTime : int)" style="text;align=left;verticalAlign=top;spacingLeft=4;spacingRight=4;overflow=hidden;rotatable=0;points=[[0,0.5],[1,0.5]];portConstraint=eastwest;" vertex="1" parent="6pwyPwWgQ0DsB0Vv8i3Q-198">
          <mxGeometry y="60" width="303" height="26" as="geometry" />
        </mxCell>
        <mxCell id="6pwyPwWgQ0DsB0Vv8i3Q-204" value="+ getHighScores() : ArrayList&lt;HighScore&gt;" style="text;align=left;verticalAlign=top;spacingLeft=4;spacingRight=4;overflow=hidden;rotatable=0;points=[[0,0.5],[1,0.5]];portConstraint=eastwest;" vertex="1" parent="6pwyPwWgQ0DsB0Vv8i3Q-198">
          <mxGeometry y="86" width="303" height="26" as="geometry" />
        </mxCell>
        <mxCell id="6pwyPwWgQ0DsB0Vv8i3Q-216" style="edgeStyle=orthogonalEdgeStyle;rounded=0;orthogonalLoop=1;jettySize=auto;html=1;entryX=0.623;entryY=1.019;entryDx=0;entryDy=0;entryPerimeter=0;" edge="1" parent="WIyWlLk6GJQsqaUBKTNV-1" source="6pwyPwWgQ0DsB0Vv8i3Q-13" target="W4WwmLkZaQW5VXkHkMsK-26">
          <mxGeometry relative="1" as="geometry">
            <Array as="points">
              <mxPoint x="964" y="60" />
            </Array>
          </mxGeometry>
        </mxCell>
        <mxCell id="6pwyPwWgQ0DsB0Vv8i3Q-13" value="Board" style="swimlane;fontStyle=0;align=center;verticalAlign=top;childLayout=stackLayout;horizontal=1;startSize=26;horizontalStack=0;resizeParent=1;resizeLast=0;collapsible=1;marginBottom=0;rounded=0;shadow=0;strokeWidth=1;" vertex="1" parent="WIyWlLk6GJQsqaUBKTNV-1">
          <mxGeometry x="680" width="210" height="216" as="geometry">
            <mxRectangle x="220" y="120" width="160" height="26" as="alternateBounds" />
          </mxGeometry>
        </mxCell>
        <mxCell id="6pwyPwWgQ0DsB0Vv8i3Q-15" value="- game : Game" style="text;align=left;verticalAlign=top;spacingLeft=4;spacingRight=4;overflow=hidden;rotatable=0;points=[[0,0.5],[1,0.5]];portConstraint=eastwest;" vertex="1" parent="6pwyPwWgQ0DsB0Vv8i3Q-13">
          <mxGeometry y="26" width="210" height="26" as="geometry" />
        </mxCell>
        <mxCell id="6pwyPwWgQ0DsB0Vv8i3Q-16" value="- scale : double" style="text;align=left;verticalAlign=top;spacingLeft=4;spacingRight=4;overflow=hidden;rotatable=0;points=[[0,0.5],[1,0.5]];portConstraint=eastwest;" vertex="1" parent="6pwyPwWgQ0DsB0Vv8i3Q-13">
          <mxGeometry y="52" width="210" height="26" as="geometry" />
        </mxCell>
        <mxCell id="6pwyPwWgQ0DsB0Vv8i3Q-18" value="- scaled_size : int" style="text;align=left;verticalAlign=top;spacingLeft=4;spacingRight=4;overflow=hidden;rotatable=0;points=[[0,0.5],[1,0.5]];portConstraint=eastwest;" vertex="1" parent="6pwyPwWgQ0DsB0Vv8i3Q-13">
          <mxGeometry y="78" width="210" height="26" as="geometry" />
        </mxCell>
        <mxCell id="6pwyPwWgQ0DsB0Vv8i3Q-17" value="- tile_size : int" style="text;align=left;verticalAlign=top;spacingLeft=4;spacingRight=4;overflow=hidden;rotatable=0;points=[[0,0.5],[1,0.5]];portConstraint=eastwest;" vertex="1" parent="6pwyPwWgQ0DsB0Vv8i3Q-13">
          <mxGeometry y="104" width="210" height="26" as="geometry" />
        </mxCell>
        <mxCell id="6pwyPwWgQ0DsB0Vv8i3Q-14" value="" style="line;html=1;strokeWidth=1;align=left;verticalAlign=middle;spacingTop=-1;spacingLeft=3;spacingRight=3;rotatable=0;labelPosition=right;points=[];portConstraint=eastwest;" vertex="1" parent="6pwyPwWgQ0DsB0Vv8i3Q-13">
          <mxGeometry y="130" width="210" height="8" as="geometry" />
        </mxCell>
        <mxCell id="6pwyPwWgQ0DsB0Vv8i3Q-21" value="+ setScale(scale : double) : boolean" style="text;align=left;verticalAlign=top;spacingLeft=4;spacingRight=4;overflow=hidden;rotatable=0;points=[[0,0.5],[1,0.5]];portConstraint=eastwest;" vertex="1" parent="6pwyPwWgQ0DsB0Vv8i3Q-13">
          <mxGeometry y="138" width="210" height="26" as="geometry" />
        </mxCell>
        <mxCell id="6pwyPwWgQ0DsB0Vv8i3Q-20" value="+ refresh() : boolean" style="text;align=left;verticalAlign=top;spacingLeft=4;spacingRight=4;overflow=hidden;rotatable=0;points=[[0,0.5],[1,0.5]];portConstraint=eastwest;" vertex="1" parent="6pwyPwWgQ0DsB0Vv8i3Q-13">
          <mxGeometry y="164" width="210" height="26" as="geometry" />
        </mxCell>
        <mxCell id="6pwyPwWgQ0DsB0Vv8i3Q-22" value="# paintComponent(g : Graphics)" style="text;align=left;verticalAlign=top;spacingLeft=4;spacingRight=4;overflow=hidden;rotatable=0;points=[[0,0.5],[1,0.5]];portConstraint=eastwest;" vertex="1" parent="6pwyPwWgQ0DsB0Vv8i3Q-13">
          <mxGeometry y="190" width="210" height="26" as="geometry" />
        </mxCell>
        <mxCell id="6pwyPwWgQ0DsB0Vv8i3Q-218" style="edgeStyle=orthogonalEdgeStyle;rounded=0;orthogonalLoop=1;jettySize=auto;html=1;entryX=0.623;entryY=0.999;entryDx=0;entryDy=0;entryPerimeter=0;" edge="1" parent="WIyWlLk6GJQsqaUBKTNV-1" source="6pwyPwWgQ0DsB0Vv8i3Q-24" target="W4WwmLkZaQW5VXkHkMsK-26">
          <mxGeometry relative="1" as="geometry">
            <Array as="points">
              <mxPoint x="964" y="180" />
              <mxPoint x="964" y="180" />
            </Array>
          </mxGeometry>
        </mxCell>
        <mxCell id="6pwyPwWgQ0DsB0Vv8i3Q-219" style="edgeStyle=orthogonalEdgeStyle;rounded=0;orthogonalLoop=1;jettySize=auto;html=1;entryX=0.623;entryY=1.026;entryDx=0;entryDy=0;entryPerimeter=0;" edge="1" parent="WIyWlLk6GJQsqaUBKTNV-1" source="6pwyPwWgQ0DsB0Vv8i3Q-42" target="W4WwmLkZaQW5VXkHkMsK-26">
          <mxGeometry relative="1" as="geometry">
            <Array as="points">
              <mxPoint x="1295" y="10" />
              <mxPoint x="964" y="10" />
            </Array>
          </mxGeometry>
        </mxCell>
      </root>
    </mxGraphModel>
  </diagram>
</mxfile>
